<?xml version="1.0" encoding="utf-8"?>
<!-- Generator: Adobe Illustrator 17.0.0, SVG Export Plug-In . SVG Version: 6.00 Build 0)  -->
<!DOCTYPE svg PUBLIC "-//W3C//DTD SVG 1.1//EN" "http://www.w3.org/Graphics/SVG/1.1/DTD/svg11.dtd">
<svg version="1.1" id="Слой_1" xmlns="http://www.w3.org/2000/svg" xmlns:xlink="http://www.w3.org/1999/xlink" x="0px" y="0px"
	 width="11px" height="14px" viewBox="0 0 11 14" enable-background="new 0 0 11 14" xml:space="preserve">
<g>
	<g>
		<g>
			<defs>
				<rect id="SVGID_1_" x="0.268" width="10.464" height="14"/>
			</defs>
			<clipPath id="SVGID_2_">
				<use xlink:href="#SVGID_1_"  overflow="visible"/>
			</clipPath>
			<path clip-path="url(#SVGID_2_)" fill="#FD8B19" d="M10.081,7.963c-0.221-0.38-0.52-0.676-0.896-0.887
				c-0.262-0.148-0.638-0.29-1.132-0.413c0.46-0.156,0.828-0.354,1.11-0.593c0.278-0.239,0.493-0.513,0.642-0.826
				c0.149-0.311,0.224-0.642,0.224-0.989c0-0.478-0.141-0.916-0.421-1.315C9.326,2.539,8.924,2.233,8.402,2.02
				c-0.304-0.125-0.68-0.208-1.114-0.261v-1.791H5.814v1.73H4.869v-1.73H3.394v1.73H0.268v1.456h0.415
				c0.276,0,0.464,0.026,0.562,0.075c0.098,0.051,0.166,0.12,0.207,0.204C1.493,3.519,1.511,3.717,1.511,4.03v5.867
				c0,0.308-0.02,0.505-0.059,0.593c-0.041,0.088-0.109,0.154-0.207,0.203c-0.098,0.047-0.286,0.073-0.562,0.073H0.268v1.456h3.126
				v1.728h1.472v-1.728h0.916c0.01,0,0.02-0.002,0.031-0.002v1.73h1.472v-1.817c0.476-0.061,0.875-0.154,1.196-0.284
				c0.612-0.245,1.09-0.605,1.427-1.075c0.337-0.47,0.505-0.985,0.505-1.542C10.412,8.767,10.302,8.343,10.081,7.963L10.081,7.963z
				 M4.115,3.396h1.153c0.675,0,1.143,0.041,1.403,0.125C6.934,3.604,7.133,3.744,7.272,3.94C7.409,4.136,7.48,4.373,7.48,4.649
				c0,0.266-0.075,0.501-0.22,0.705C7.114,5.559,6.897,5.71,6.608,5.812c-0.29,0.1-0.736,0.151-1.341,0.151H4.115V3.396z
				 M7.374,9.897c-0.205,0.263-0.456,0.434-0.75,0.517c-0.294,0.084-0.662,0.125-1.11,0.125H4.747c-0.257,0-0.413-0.014-0.47-0.041
				c-0.059-0.028-0.1-0.077-0.125-0.147c-0.02-0.055-0.031-0.243-0.037-0.566V7.507h1.361c0.599,0,1.041,0.057,1.333,0.166
				C7.1,7.783,7.317,7.947,7.464,8.164c0.145,0.215,0.217,0.48,0.217,0.791C7.683,9.321,7.58,9.637,7.374,9.897L7.374,9.897z"/>
		</g>
	</g>
</g>
</svg>
