<?xml version="1.0" encoding="utf-8"?>
<!-- Generator: Adobe Illustrator 17.0.0, SVG Export Plug-In . SVG Version: 6.00 Build 0)  -->
<!DOCTYPE svg PUBLIC "-//W3C//DTD SVG 1.1//EN" "http://www.w3.org/Graphics/SVG/1.1/DTD/svg11.dtd">
<svg version="1.1" id="Слой_1" xmlns="http://www.w3.org/2000/svg" xmlns:xlink="http://www.w3.org/1999/xlink" x="0px" y="0px"
	 width="14px" height="14px" viewBox="0 0 14 14" enable-background="new 0 0 14 14" xml:space="preserve">
<g>
	<defs>
		<rect id="SVGID_1_" width="14" height="14"/>
	</defs>
	<clipPath id="SVGID_2_">
		<use xlink:href="#SVGID_1_"  overflow="visible"/>
	</clipPath>
	<g clip-path="url(#SVGID_2_)">
		<rect x="3" y="1" fill="#FFFFFF" width="9" height="13"/>
		<g>
			<path fill="#475993" d="M12.114,0H1.887C0.845,0,0,0.845,0,1.886v10.227C0,13.155,0.845,14,1.887,14H6.93l0.009-5.003h-1.3
				c-0.169,0-0.306-0.137-0.307-0.306L5.326,7.079c-0.001-0.17,0.137-0.308,0.307-0.308h1.298V5.213
				c0-1.808,1.104-2.793,2.717-2.793h1.324c0.169,0,0.307,0.137,0.307,0.307v1.36c0,0.169-0.137,0.307-0.307,0.307l-0.812,0
				c-0.877,0-1.047,0.417-1.047,1.029v1.349h1.928c0.184,0,0.326,0.16,0.305,0.343l-0.191,1.613
				c-0.018,0.154-0.149,0.271-0.305,0.271H9.121L9.112,14h3.001C13.155,14,14,13.155,14,12.114V1.886C14,0.845,13.155,0,12.114,0
				L12.114,0z M12.114,0"/>
		</g>
	</g>
</g>
</svg>
