<?xml version="1.0" encoding="utf-8"?>
<!-- Generator: Adobe Illustrator 17.0.0, SVG Export Plug-In . SVG Version: 6.00 Build 0)  -->
<!DOCTYPE svg PUBLIC "-//W3C//DTD SVG 1.1//EN" "http://www.w3.org/Graphics/SVG/1.1/DTD/svg11.dtd">
<svg version="1.1" id="Слой_1" xmlns="http://www.w3.org/2000/svg" xmlns:xlink="http://www.w3.org/1999/xlink" x="0px" y="0px"
	 width="14px" height="14px" viewBox="0 0 14 14" enable-background="new 0 0 14 14" xml:space="preserve">
<g>
	<defs>
		<rect id="SVGID_1_" x="0" width="14" height="14"/>
	</defs>
	<clipPath id="SVGID_2_">
		<use xlink:href="#SVGID_1_"  overflow="visible"/>
	</clipPath>
	<g clip-path="url(#SVGID_2_)">
		<rect x="1" y="0.75" fill="#FFFFFF" width="12" height="13"/>
		<g>
			<path fill="#0077B7" d="M12.734,0H1.266C0.567,0,0,0.567,0,1.266v11.467C0,13.433,0.567,14,1.266,14h11.467
				C13.433,14,14,13.433,14,12.734V1.266C14,0.567,13.433,0,12.734,0L12.734,0z M4.332,12.088c0,0.204-0.165,0.369-0.369,0.369
				H2.395c-0.204,0-0.369-0.165-0.369-0.369V5.512c0-0.204,0.165-0.369,0.369-0.369h1.569c0.204,0,0.369,0.165,0.369,0.369V12.088z
				 M3.179,4.524c-0.823,0-1.49-0.667-1.49-1.49c0-0.823,0.667-1.49,1.49-1.49c0.823,0,1.49,0.667,1.49,1.49
				C4.67,3.856,4.002,4.524,3.179,4.524L3.179,4.524z M12.531,12.118c0,0.187-0.152,0.339-0.339,0.339h-1.684
				c-0.187,0-0.339-0.152-0.339-0.339V9.033c0-0.46,0.135-2.016-1.203-2.016c-1.038,0-1.248,1.065-1.29,1.543v3.558
				c0,0.187-0.152,0.339-0.339,0.339H5.71c-0.187,0-0.339-0.152-0.339-0.339V5.483c0-0.187,0.152-0.339,0.339-0.339h1.628
				c0.187,0,0.339,0.152,0.339,0.339v0.574C8.062,5.479,8.633,5.033,9.85,5.033c2.696,0,2.68,2.518,2.68,3.902V12.118z
				 M12.531,12.118"/>
		</g>
	</g>
</g>
</svg>
