<?xml version="1.0" encoding="utf-8"?>
<!-- Generator: Adobe Illustrator 17.0.0, SVG Export Plug-In . SVG Version: 6.00 Build 0)  -->
<!DOCTYPE svg PUBLIC "-//W3C//DTD SVG 1.1//EN" "http://www.w3.org/Graphics/SVG/1.1/DTD/svg11.dtd">
<svg version="1.1" id="Слой_1" xmlns="http://www.w3.org/2000/svg" xmlns:xlink="http://www.w3.org/1999/xlink" x="0px" y="0px"
	 width="17px" height="14px" viewBox="0 0 17 14" enable-background="new 0 0 17 14" xml:space="preserve">
<g>
	<g>
		<defs>
			<rect id="SVGID_1_" x="0.3" width="16.4" height="14"/>
		</defs>
		<clipPath id="SVGID_2_">
			<use xlink:href="#SVGID_1_"  overflow="visible"/>
		</clipPath>
		<path clip-path="url(#SVGID_2_)" fill="#00FD8D" d="M16.302,13.922l-5.05-2.428L11.214,0.489
			c-0.001-0.257,0.267-0.426,0.499-0.315L16.5,2.477c0.12,0.058,0.197,0.18,0.197,0.314v10.883
			C16.697,13.877,16.485,14.011,16.302,13.922L16.302,13.922z M16.302,13.922"/>
		<path clip-path="url(#SVGID_2_)" fill="#00E470" d="M11.252,11.495L5.786,8.867l5.262-8.663c0.093-0.153,0.287-0.211,0.448-0.133
			l4.855,2.335c0.186,0.089,0.253,0.319,0.146,0.495L11.252,11.495z M11.252,11.495"/>
		<path clip-path="url(#SVGID_2_)" fill="#00C967" d="M11.252,11.495L5.786,8.867l-5.01-8.158c-0.14-0.227,0.103-0.496,0.344-0.381
			l4.666,2.244L11.252,11.495z M11.252,11.495"/>
		<path clip-path="url(#SVGID_2_)" fill="#00AD6C" d="M5.39,13.922L0.456,11.55C0.361,11.504,0.3,11.407,0.3,11.301V0.359
			c0-0.197,0.206-0.326,0.383-0.241l5.103,2.454v11.102C5.786,13.877,5.573,14.01,5.39,13.922L5.39,13.922z M5.39,13.922"/>
	</g>
</g>
</svg>
