<?xml version="1.0" encoding="utf-8"?>
<!-- Generator: Adobe Illustrator 17.0.0, SVG Export Plug-In . SVG Version: 6.00 Build 0)  -->
<!DOCTYPE svg PUBLIC "-//W3C//DTD SVG 1.1//EN" "http://www.w3.org/Graphics/SVG/1.1/DTD/svg11.dtd">
<svg version="1.1" id="Слой_1" xmlns="http://www.w3.org/2000/svg" xmlns:xlink="http://www.w3.org/1999/xlink" x="0px" y="0px"
	 width="17px" height="14px" viewBox="0 0 17 14" enable-background="new 0 0 17 14" xml:space="preserve">
<g>
	<path fill="#F8571D" d="M14.881,4.849c-0.481,0-0.924,0.169-1.272,0.449c-1.231-0.767-2.794-1.229-4.468-1.326l0.874-2.737
		l2.401,0.56c0.063,0.866,0.794,1.552,1.684,1.552c0.931,0,1.689-0.751,1.689-1.674C15.788,0.751,15.03,0,14.099,0
		c-0.651,0-1.217,0.367-1.499,0.903L9.81,0.253c-0.234-0.055-0.47,0.079-0.543,0.306L8.183,3.955
		C6.378,3.999,4.682,4.463,3.36,5.274C3.017,5.009,2.587,4.849,2.119,4.849c-1.113,0-2.02,0.898-2.02,2.001
		c0,0.682,0.346,1.285,0.874,1.646C0.952,8.655,0.94,8.814,0.94,8.976c0,1.379,0.809,2.662,2.278,3.612
		C4.627,13.499,6.491,14,8.466,14c1.975,0,3.839-0.501,5.248-1.412c1.469-0.95,2.278-2.233,2.278-3.612
		c0-0.147-0.01-0.294-0.028-0.439C16.526,8.182,16.9,7.559,16.9,6.85C16.9,5.747,15.995,4.849,14.881,4.849z M14.099,0.909
		c0.425,0,0.771,0.343,0.771,0.764c0,0.422-0.346,0.764-0.771,0.764c-0.425,0-0.771-0.343-0.771-0.764
		C13.328,1.252,13.674,0.909,14.099,0.909z M4.864,8.088c0-0.622,0.527-1.144,1.154-1.144s1.137,0.522,1.137,1.144
		S6.646,9.215,6.018,9.215S4.864,8.71,4.864,8.088z M11.266,11.402c-0.585,0.579-1.487,0.86-2.757,0.86
		c-0.003,0-0.006-0.001-0.009-0.001s-0.006,0.001-0.009,0.001c-1.271,0-2.172-0.282-2.756-0.86c-0.18-0.178-0.18-0.466,0-0.643
		c0.179-0.177,0.469-0.177,0.649,0c0.403,0.4,1.093,0.594,2.107,0.594c0.003,0,0.006,0.001,0.009,0.001s0.006-0.001,0.009-0.001
		c1.015,0,1.704-0.195,2.109-0.594c0.179-0.178,0.47-0.177,0.649,0C11.445,10.936,11.445,11.224,11.266,11.402z M11,9.215
		c-0.628,0-1.156-0.505-1.156-1.127c0-0.622,0.528-1.144,1.156-1.144s1.137,0.521,1.137,1.144C12.137,8.71,11.627,9.215,11,9.215z"
		/>
	<g>
		<path fill="#E23C0A" d="M14.411,0.976c0.27,0.119,0.459,0.386,0.459,0.697c0,0.331-0.215,0.611-0.513,0.717
			c-0.038,0.322-0.092,0.64-0.163,0.952c0.886-0.05,1.593-0.778,1.593-1.669c0-0.846-0.638-1.546-1.462-1.656
			C14.37,0.332,14.4,0.652,14.411,0.976z"/>
		<path fill="#E23C0A" d="M16.9,6.85c0-1.103-0.906-2.001-2.019-2.001c-0.481,0-0.924,0.169-1.272,0.449
			c-0.025-0.015-0.051-0.029-0.076-0.044c-0.396,0.836-0.912,1.612-1.531,2.308c0.083,0.159,0.135,0.336,0.135,0.526
			c0,0.622-0.509,1.127-1.137,1.127c-0.228,0-0.441-0.068-0.622-0.182c-1.135,0.831-2.457,1.455-3.9,1.806
			c0.412,0.344,1.071,0.514,2.013,0.514c0.003,0,0.006,0.001,0.009,0.001s0.006-0.001,0.009-0.001c1.015,0,1.704-0.195,2.109-0.594
			c0.179-0.178,0.47-0.177,0.649,0c0.179,0.178,0.179,0.466,0,0.643c-0.585,0.579-1.487,0.86-2.757,0.86
			c-0.003,0-0.006-0.001-0.009-0.001s-0.006,0.001-0.009,0.001c-1.271,0-2.172-0.282-2.756-0.86
			c-0.107-0.106-0.149-0.251-0.128-0.389c-0.605,0.098-1.225,0.152-1.86,0.152c-0.758,0-1.498-0.074-2.211-0.213
			c0.386,0.608,0.953,1.163,1.684,1.635C4.627,13.498,6.491,14,8.466,14c1.975,0,3.839-0.501,5.248-1.412
			c1.469-0.95,2.278-2.233,2.278-3.612c0-0.147-0.01-0.294-0.028-0.439C16.526,8.182,16.9,7.559,16.9,6.85z"/>
	</g>
	<path fill="#FF7F00" d="M1.995,8.584c1.037,0,2.017-0.241,2.886-0.667C4.968,7.373,5.45,6.944,6.018,6.944
		c0.094,0,0.184,0.015,0.271,0.037C7.336,6.068,8.08,4.827,8.353,3.421L8.183,3.955C6.378,3.999,4.682,4.463,3.36,5.274
		C3.017,5.009,2.586,4.849,2.119,4.849C1.006,4.849,0.1,5.747,0.1,6.85c0,0.682,0.346,1.285,0.874,1.646
		C0.973,8.499,0.973,8.502,0.973,8.504C1.306,8.556,1.647,8.584,1.995,8.584z"/>
</g>
</svg>
