<?xml version="1.0" encoding="utf-8"?>
<!-- Generator: Adobe Illustrator 17.0.0, SVG Export Plug-In . SVG Version: 6.00 Build 0)  -->
<!DOCTYPE svg PUBLIC "-//W3C//DTD SVG 1.1//EN" "http://www.w3.org/Graphics/SVG/1.1/DTD/svg11.dtd">
<svg version="1.1" id="Слой_1" xmlns="http://www.w3.org/2000/svg" xmlns:xlink="http://www.w3.org/1999/xlink" x="0px" y="0px"
	 width="14px" height="14px" viewBox="0 0 14 14" enable-background="new 0 0 14 14" xml:space="preserve">
<g>
	<path fill="#DFA22F" d="M9.079,0.862C8.866,0.207,8.163-0.152,7.508,0.061C6.853,0.274,6.494,0.978,6.707,1.633l3.225,9.921
		c0.221,0.612,0.882,0.956,1.517,0.773c0.662-0.191,1.065-0.894,0.854-1.544L9.079,0.862"/>
	<path fill="#3CB187" d="M4.082,2.486C3.869,1.831,3.166,1.472,2.511,1.685C1.856,1.898,1.497,2.601,1.71,3.256l3.225,9.922
		c0.221,0.612,0.882,0.956,1.517,0.773c0.662-0.19,1.065-0.893,0.854-1.544L4.082,2.486"/>
	<path fill="#CE1E5B" d="M13.138,9.079c0.655-0.213,1.013-0.916,0.801-1.571c-0.213-0.655-0.916-1.014-1.571-0.801L2.446,9.932
		c-0.612,0.221-0.956,0.882-0.773,1.517c0.191,0.662,0.894,1.065,1.544,0.854L13.138,9.079"/>
	<path fill="#392538" d="M4.514,11.881l2.371-0.77L6.114,8.739L3.743,9.51L4.514,11.881"/>
	<path fill="#BB242A" d="M9.51,10.258c0.896-0.291,1.73-0.562,2.371-0.77l-0.771-2.372L8.739,7.886L9.51,10.258"/>
	<path fill="#72C5CD" d="M11.514,4.082c0.655-0.213,1.014-0.916,0.801-1.571c-0.213-0.655-0.916-1.013-1.571-0.801L0.822,4.935
		C0.21,5.156-0.134,5.817,0.049,6.452c0.19,0.662,0.893,1.065,1.544,0.854L11.514,4.082"/>
	<path fill="#248C73" d="M2.89,6.885c0.646-0.21,1.478-0.48,2.372-0.771c-0.291-0.897-0.562-1.73-0.77-2.372L2.119,4.514L2.89,6.885
		"/>
	<path fill="#62803A" d="M7.886,5.261l2.372-0.771C10.001,3.7,9.744,2.909,9.487,2.119L7.115,2.89L7.886,5.261"/>
</g>
</svg>
