<?xml version="1.0" encoding="utf-8"?>
<!-- Generator: Adobe Illustrator 17.0.0, SVG Export Plug-In . SVG Version: 6.00 Build 0)  -->
<!DOCTYPE svg PUBLIC "-//W3C//DTD SVG 1.1//EN" "http://www.w3.org/Graphics/SVG/1.1/DTD/svg11.dtd">
<svg version="1.1" id="Слой_1" xmlns="http://www.w3.org/2000/svg" xmlns:xlink="http://www.w3.org/1999/xlink" x="0px" y="0px"
	 width="18px" height="14px" viewBox="0 0 18 14" enable-background="new 0 0 18 14" xml:space="preserve">
<path fill="#55ACEE" d="M17.613,1.658c-0.633,0.281-1.315,0.471-2.03,0.556c0.73-0.438,1.29-1.13,1.555-1.955
	c-0.683,0.404-1.44,0.699-2.245,0.857C14.249,0.429,13.33,0,12.313,0c-1.952,0-3.534,1.583-3.534,3.534
	c0,0.277,0.031,0.547,0.091,0.806C5.934,4.192,3.329,2.785,1.586,0.646c-0.305,0.523-0.479,1.13-0.479,1.777
	c0,1.227,0.624,2.309,1.571,2.942C2.1,5.347,1.555,5.188,1.078,4.923c0,0.015,0,0.03,0,0.045c0,1.712,1.219,3.14,2.835,3.465
	c-0.296,0.081-0.609,0.125-0.93,0.125c-0.228,0-0.449-0.022-0.666-0.063c0.451,1.404,1.756,2.426,3.303,2.454
	c-1.21,0.949-2.734,1.512-4.39,1.512c-0.286,0-0.568-0.015-0.843-0.049C1.95,13.415,3.808,14,5.804,14
	C12.304,14,15.86,8.614,15.86,3.943c0-0.153-0.004-0.305-0.01-0.457C16.541,2.988,17.14,2.366,17.613,1.658L17.613,1.658z
	 M17.613,1.658"/>
</svg>
