<?xml version="1.0" encoding="utf-8"?>
<!-- Generator: Adobe Illustrator 17.0.0, SVG Export Plug-In . SVG Version: 6.00 Build 0)  -->
<!DOCTYPE svg PUBLIC "-//W3C//DTD SVG 1.1//EN" "http://www.w3.org/Graphics/SVG/1.1/DTD/svg11.dtd">
<svg version="1.1" id="Слой_1" xmlns="http://www.w3.org/2000/svg" xmlns:xlink="http://www.w3.org/1999/xlink" x="0px" y="0px"
	 width="20px" height="14px" viewBox="0 0 20 14" enable-background="new 0 0 20 14" xml:space="preserve">
<g>
	<defs>
		<rect id="SVGID_1_" x="0" width="20" height="14"/>
	</defs>
	<clipPath id="SVGID_2_">
		<use xlink:href="#SVGID_1_"  overflow="visible"/>
	</clipPath>
	<g clip-path="url(#SVGID_2_)">
		<rect x="5" y="1.75" fill="#FFFFFF" width="9" height="9"/>
		<g>
			<defs>
				<rect id="SVGID_3_" x="0.138" width="19.723" height="14"/>
			</defs>
			<clipPath id="SVGID_4_">
				<use xlink:href="#SVGID_3_"  overflow="visible"/>
			</clipPath>
			<path clip-path="url(#SVGID_4_)" fill="#F61C0D" d="M15.762-0.005H4.234c-2.262,0-4.095,1.834-4.095,4.095v5.763
				c0,2.262,1.834,4.095,4.095,4.095h11.528c2.262,0,4.095-1.834,4.095-4.095V4.09C19.857,1.829,18.024-0.005,15.762-0.005
				L15.762-0.005z M12.992,7.252L7.6,9.824c-0.144,0.069-0.31-0.036-0.31-0.195V4.324c0-0.161,0.17-0.266,0.314-0.193l5.392,2.732
				C13.157,6.945,13.154,7.175,12.992,7.252L12.992,7.252z M12.992,7.252"/>
		</g>
	</g>
</g>
</svg>
