<?xml version="1.0" encoding="utf-8"?>
<!-- Generator: Adobe Illustrator 17.0.0, SVG Export Plug-In . SVG Version: 6.00 Build 0)  -->
<!DOCTYPE svg PUBLIC "-//W3C//DTD SVG 1.1//EN" "http://www.w3.org/Graphics/SVG/1.1/DTD/svg11.dtd">
<svg version="1.1" id="Слой_1" xmlns="http://www.w3.org/2000/svg" xmlns:xlink="http://www.w3.org/1999/xlink" x="0px" y="0px"
	 width="16px" height="24px" viewBox="0 0 16 24" enable-background="new 0 0 16 24" xml:space="preserve">
<g>
	<path fill="#FDCC59" d="M6.887,18.336v-5.618c-2.078-0.5-3.602-1.258-4.57-2.272C1.347,9.43,0.855,8.196,0.855,6.75
		c0-1.468,0.556-2.704,1.65-3.704c1.1-0.992,2.562-1.57,4.382-1.718V0h2.312v1.328c1.68,0.164,3.024,0.656,4.016,1.454
		c1,0.804,1.632,1.874,1.914,3.21l-4.024,0.446c-0.242-1.056-0.882-1.774-1.914-2.148v5.25c2.548,0.578,4.282,1.328,5.204,2.256
		c0.922,0.93,1.382,2.118,1.382,3.564c0,1.616-0.578,2.984-1.742,4.094c-1.156,1.108-2.772,1.788-4.844,2.038V24H6.887v-2.446
		c-1.836-0.186-3.32-0.764-4.468-1.726c-1.15-0.968-1.876-2.328-2.196-4.094l4.148-0.374c0.172,0.71,0.492,1.336,0.962,1.85
		C5.793,17.734,6.317,18.11,6.887,18.336L6.887,18.336z M6.887,4.25C6.263,4.43,5.763,4.734,5.395,5.164
		c-0.376,0.43-0.562,0.898-0.562,1.422c0,0.476,0.172,0.914,0.514,1.32C5.683,8.312,6.199,8.64,6.887,8.89V4.25z M9.191,18.524
		c0.798-0.126,1.446-0.438,1.946-0.93c0.492-0.5,0.742-1.078,0.742-1.75c0-0.602-0.21-1.118-0.624-1.554
		c-0.422-0.43-1.102-0.766-2.064-0.994V18.524z M9.191,18.524"/>
</g>
</svg>
