<?xml version="1.0" encoding="utf-8"?>
<!-- Generator: Adobe Illustrator 17.0.0, SVG Export Plug-In . SVG Version: 6.00 Build 0)  -->
<!DOCTYPE svg PUBLIC "-//W3C//DTD SVG 1.1//EN" "http://www.w3.org/Graphics/SVG/1.1/DTD/svg11.dtd">
<svg version="1.1" id="Слой_1" xmlns="http://www.w3.org/2000/svg" xmlns:xlink="http://www.w3.org/1999/xlink" x="0px" y="0px"
	 width="86px" height="37px" viewBox="0 0 86 37" enable-background="new 0 0 86 37" xml:space="preserve">
<g>
	<defs>
		<rect id="SVGID_1_" width="86" height="37"/>
	</defs>
	<clipPath id="SVGID_2_">
		<use xlink:href="#SVGID_1_"  overflow="visible"/>
	</clipPath>
	<g clip-path="url(#SVGID_2_)">
		<g>
			<path fill="#262626" d="M63.973,31.5h-3.324c-0.118,0-0.213-0.095-0.213-0.213V5.713c0-0.118,0.095-0.213,0.213-0.213h3.324
				c0.118,0,0.213,0.095,0.213,0.213v25.574C64.187,31.405,64.091,31.5,63.973,31.5z"/>
		</g>
		<g>
			<path fill="#262626" d="M77.579,31.5h-3.324c-0.118,0-0.213-0.095-0.213-0.213V8.844h-7.995c-0.118,0-0.213-0.095-0.213-0.213
				V5.713c0-0.118,0.095-0.213,0.213-0.213h19.741C85.905,5.5,86,5.595,86,5.713v2.918c0,0.118-0.095,0.213-0.213,0.213h-7.995
				v22.443C77.792,31.405,77.696,31.5,77.579,31.5z"/>
		</g>
		<g>
			<path fill="#262626" d="M38.376,17.517h-2.864c-0.119,0-0.215-0.096-0.215-0.215v-6.156l-1.864,6.216
				c-0.027,0.092-0.111,0.155-0.206,0.155h-2.466c-0.095,0-0.179-0.063-0.206-0.155l-1.864-6.216v6.156
				c0,0.119-0.096,0.215-0.215,0.215h-2.864c-0.119,0-0.215-0.096-0.215-0.215V5.715c0-0.119,0.096-0.215,0.215-0.215h4.648
				c0.1,0,0.186,0.068,0.209,0.165l1.517,6.421l1.532-6.421C33.543,5.568,33.629,5.5,33.729,5.5h4.648
				c0.119,0,0.215,0.096,0.215,0.215v11.587C38.591,17.421,38.495,17.517,38.376,17.517z"/>
		</g>
		<g>
			<path fill="#262626" d="M33.435,31.286h-3.12c-0.119,0-0.215-0.096-0.215-0.215v-3.756l-4.072-7.732
				c-0.035-0.067-0.032-0.146,0.007-0.21c0.039-0.064,0.108-0.103,0.183-0.103h3.723c0.084,0,0.161,0.049,0.195,0.126L31.88,23.2
				l0.188-0.384l1.572-3.422c0.035-0.076,0.111-0.125,0.195-0.125h3.723c0.075,0,0.144,0.039,0.183,0.103
				c0.039,0.064,0.042,0.144,0.007,0.21l-4.099,7.732v3.756C33.649,31.19,33.553,31.286,33.435,31.286z"/>
		</g>
		<path fill="#262626" d="M54.663,18.375c0,0,3.326-2.003,3.219-6.008c-0.107-4.006-2.611-6.402-6.545-6.831L40.751,5.5v25.964
			l9.942,0.036c0,0,8.154-0.107,8.154-7.296C58.848,20.699,56.773,19.126,54.663,18.375z M44.453,8.933h6.151
			c0,0,3.505-0.143,3.541,3.827s-3.254,4.184-3.254,4.184h-6.437V8.933z M50.89,28.067h-6.437v-7.904h6.151
			c0,0,4.578,0.089,4.578,3.827C55.182,27.709,50.89,28.067,50.89,28.067z"/>
	</g>
	<g clip-path="url(#SVGID_2_)">
		<polygon fill="#DD464C" points="20.816,15.836 20.811,15.834 10.408,0.298 0.005,15.834 0,15.836 5.838,18.389 0,20.946 
			10.408,36.701 10.408,36.702 20.816,20.946 14.984,18.389 		"/>
		<g>
			<defs>
				<rect id="SVGID_3_" x="0" y="0.25" width="20.816" height="36.5"/>
			</defs>
			<clipPath id="SVGID_4_">
				<use xlink:href="#SVGID_3_"  overflow="visible"/>
			</clipPath>
			<g clip-path="url(#SVGID_4_)">
				<g>
					<defs>
						<polygon id="SVGID_5_" points="0,20.946 10.408,16.08 10.408,23.019 10.408,36.479 						"/>
					</defs>
					<clipPath id="SVGID_6_">
						<use xlink:href="#SVGID_5_"  overflow="visible"/>
					</clipPath>
					<polygon clip-path="url(#SVGID_6_)" fill="#DD464C" points="5.138,18.23 0,20.946 10.408,26.184 10.408,20.843 					"/>
				</g>
				<g>
					<defs>
						<polygon id="SVGID_7_" points="10.408,36.479 10.408,23.019 10.408,16.08 20.816,20.946 						"/>
					</defs>
					<clipPath id="SVGID_8_">
						<use xlink:href="#SVGID_7_"  overflow="visible"/>
					</clipPath>
					<polygon clip-path="url(#SVGID_8_)" fill="#C23D43" points="10.408,20.843 10.408,26.184 20.816,20.946 15.684,18.23 					"/>
				</g>
			</g>
			<g clip-path="url(#SVGID_4_)">
				<polygon fill="#FDCC59" points="10.408,21.182 10.408,15.934 5.21,18.511 				"/>
				<polygon fill="#FDCC59" points="0.005,15.834 10.408,10.593 10.408,0.298 				"/>
			</g>
			<polygon clip-path="url(#SVGID_4_)" fill="#FD8B19" points="10.408,0.298 10.408,13.759 10.408,21.182 20.813,15.836 			"/>
			<g clip-path="url(#SVGID_4_)">
				<defs>
					<polygon id="SVGID_9_" points="0.003,15.836 10.408,21.182 10.408,13.759 10.408,0.298 					"/>
				</defs>
				<clipPath id="SVGID_10_">
					<use xlink:href="#SVGID_9_"  overflow="visible"/>
				</clipPath>
				<polygon clip-path="url(#SVGID_10_)" fill="#DD464C" points="5.138,18.547 0,15.836 10.408,10.593 10.408,15.934 				"/>
			</g>
			<g clip-path="url(#SVGID_4_)">
				<defs>
					<polygon id="SVGID_11_" points="10.408,0.298 10.408,13.759 10.408,21.182 20.813,15.836 					"/>
				</defs>
				<clipPath id="SVGID_12_">
					<use xlink:href="#SVGID_11_"  overflow="visible"/>
				</clipPath>
				<polygon clip-path="url(#SVGID_12_)" fill="#C23D43" points="10.408,15.934 10.408,10.593 20.816,15.836 15.684,18.547 				"/>
			</g>
			<g clip-path="url(#SVGID_4_)">
				<polygon fill="#FDCC59" points="0,20.946 10.408,36.702 10.408,26.184 				"/>
				<polygon fill="#FD8B19" points="10.408,26.184 10.408,36.702 20.816,20.946 				"/>
			</g>
		</g>
	</g>
</g>
</svg>
