<?xml version="1.0" encoding="utf-8"?>
<!-- Generator: Adobe Illustrator 17.0.0, SVG Export Plug-In . SVG Version: 6.00 Build 0)  -->
<!DOCTYPE svg PUBLIC "-//W3C//DTD SVG 1.1//EN" "http://www.w3.org/Graphics/SVG/1.1/DTD/svg11.dtd">
<svg version="1.1" id="Слой_1" xmlns="http://www.w3.org/2000/svg" xmlns:xlink="http://www.w3.org/1999/xlink" x="0px" y="0px"
	 width="142px" height="183px" viewBox="0 0 142 183" enable-background="new 0 0 142 183" xml:space="preserve">
<g>
	<polygon fill="#FD8B19" points="94.804,40.223 94.792,40.217 68.001,0.208 41.208,40.217 41.196,40.223 56.313,47.188 
		41.196,53.384 68.001,93.958 68.001,93.959 94.804,53.384 79.813,46.938 	"/>
	<g>
		<g>
			<path fill="#FFFFFF" d="M90.279,182.916h-7.746c-0.274,0-0.497-0.222-0.497-0.497v-59.59c0-0.274,0.222-0.497,0.497-0.497h7.746
				c0.274,0,0.497,0.222,0.497,0.497v59.59C90.776,182.694,90.554,182.916,90.279,182.916z"/>
		</g>
		<g>
			<path fill="#FFFFFF" d="M121.981,182.916h-7.746c-0.274,0-0.497-0.222-0.497-0.497v-52.295h-18.63
				c-0.274,0-0.497-0.222-0.497-0.497v-6.799c0-0.274,0.222-0.497,0.497-0.497h45.999c0.274,0,0.497,0.222,0.497,0.497v6.799
				c0,0.274-0.222,0.497-0.497,0.497h-18.63v52.295C122.478,182.694,122.255,182.916,121.981,182.916z"/>
		</g>
		<g>
			<path fill="#FFFFFF" d="M30.635,150.333h-6.672c-0.276,0-0.5-0.224-0.5-0.5V135.49l-4.343,14.483
				c-0.062,0.214-0.258,0.36-0.48,0.36h-5.747c-0.222,0-0.418-0.146-0.48-0.36L8.069,135.49v14.344c0,0.276-0.224,0.5-0.5,0.5H0.896
				c-0.276,0-0.5-0.224-0.5-0.5v-27c0-0.276,0.224-0.5,0.5-0.5h10.83c0.232,0,0.433,0.159,0.487,0.385l3.536,14.961l3.569-14.962
				c0.054-0.225,0.255-0.384,0.486-0.384h10.83c0.276,0,0.5,0.224,0.5,0.5v27C31.135,150.11,30.911,150.333,30.635,150.333z"/>
		</g>
		<g>
			<path fill="#FFFFFF" d="M19.12,182.417h-7.271c-0.276,0-0.5-0.224-0.5-0.5v-8.753l-9.488-18.017
				c-0.081-0.155-0.074-0.341,0.017-0.49s0.252-0.24,0.427-0.24h8.676c0.196,0,0.374,0.114,0.455,0.293l4.061,8.866l0.438-0.895
				l3.662-7.974c0.082-0.177,0.259-0.291,0.455-0.291h8.676c0.175,0,0.336,0.091,0.427,0.24s0.097,0.335,0.017,0.49l-9.551,18.017
				v8.753C19.62,182.193,19.396,182.417,19.12,182.417z"/>
		</g>
		<path fill="#FFFFFF" d="M68.585,152.333c0,0,7.75-4.667,7.5-14s-6.083-14.917-15.25-15.917l-24.667-0.083v60.5l23.167,0.083
			c0,0,19-0.25,19-17C78.335,157.75,73.502,154.083,68.585,152.333z M44.794,130.333h14.333c0,0,8.167-0.333,8.25,8.917
			S59.794,149,59.794,149h-15V130.333z M59.794,174.917h-15V156.5h14.333c0,0,10.667,0.208,10.667,8.917
			C69.794,174.083,59.794,174.917,59.794,174.917z"/>
	</g>
	<g>
		<g>
			<defs>
				<rect id="SVGID_1_" x="41.196" y="0.083" width="53.607" height="94"/>
			</defs>
			<clipPath id="SVGID_2_">
				<use xlink:href="#SVGID_1_"  overflow="visible"/>
			</clipPath>
			<g clip-path="url(#SVGID_2_)">
				<g>
					<g>
						<g>
							<defs>
								<polygon id="SVGID_3_" points="41.196,53.384 68.001,40.85 68.001,58.72 68.001,93.386 								"/>
							</defs>
							<clipPath id="SVGID_4_">
								<use xlink:href="#SVGID_3_"  overflow="visible"/>
							</clipPath>
							<polygon clip-path="url(#SVGID_4_)" fill="#DD464C" points="54.427,46.389 41.196,53.384 68.001,66.873 68.001,53.118 
															"/>
						</g>
						<g>
							<g>
								<defs>
									<polygon id="SVGID_5_" points="68.001,93.386 68.001,58.72 68.001,40.85 94.804,53.384 									"/>
								</defs>
								<clipPath id="SVGID_6_">
									<use xlink:href="#SVGID_5_"  overflow="visible"/>
								</clipPath>
								<polygon clip-path="url(#SVGID_6_)" fill="#C23D43" points="68.001,53.118 68.001,66.873 94.804,53.384 81.589,46.389 
																	"/>
							</g>
						</g>
						<g>
							<polygon fill="#FDCC59" points="41.204,40.223 68.001,53.991 68.001,34.874 68.001,0.208 							"/>
							<polygon fill="#FD8B19" points="68.001,0.208 68.001,34.874 68.001,53.991 94.796,40.223 							"/>
						</g>
						<g>
							<g>
								<defs>
									<polygon id="SVGID_7_" points="41.204,40.223 68.001,53.991 68.001,34.874 68.001,0.208 									"/>
								</defs>
								<clipPath id="SVGID_8_">
									<use xlink:href="#SVGID_7_"  overflow="visible"/>
								</clipPath>
								<polygon clip-path="url(#SVGID_8_)" fill="#DD464C" points="54.427,47.205 41.196,40.223 68.001,26.721 68.001,40.476 
																	"/>
							</g>
							<g>
								<g>
									<defs>
										<polygon id="SVGID_9_" points="68.001,0.208 68.001,34.874 68.001,53.991 94.796,40.223 										"/>
									</defs>
									<clipPath id="SVGID_10_">
										<use xlink:href="#SVGID_9_"  overflow="visible"/>
									</clipPath>
									<polygon clip-path="url(#SVGID_10_)" fill="#C23D43" points="68.001,40.476 68.001,26.721 94.804,40.223 81.589,47.205 
																			"/>
								</g>
								<g>
									<polygon fill="#FDCC59" points="41.196,53.384 68.001,93.958 68.001,66.873 									"/>
									<polygon fill="#FD8B19" points="68.001,66.873 68.001,93.959 94.804,53.384 									"/>
								</g>
							</g>
						</g>
					</g>
				</g>
			</g>
		</g>
	</g>
</g>
</svg>
