<?xml version="1.0" encoding="utf-8"?>
<!-- Generator: Adobe Illustrator 17.0.0, SVG Export Plug-In . SVG Version: 6.00 Build 0)  -->
<!DOCTYPE svg PUBLIC "-//W3C//DTD SVG 1.1//EN" "http://www.w3.org/Graphics/SVG/1.1/DTD/svg11.dtd">
<svg version="1.1" id="Слой_1" xmlns="http://www.w3.org/2000/svg" xmlns:xlink="http://www.w3.org/1999/xlink" x="0px" y="0px"
	 width="41px" height="41px" viewBox="0 0 41 41" enable-background="new 0 0 41 41" xml:space="preserve">
<g>
	<defs>
		<rect id="SVGID_1_" width="41" height="41"/>
	</defs>
	<clipPath id="SVGID_2_">
		<use xlink:href="#SVGID_1_"  overflow="visible"/>
	</clipPath>
	<g clip-path="url(#SVGID_2_)">
		<g>
			<path fill="#878787" d="M28.303,27.43l-5.05-2.428l-0.038-11.005c-0.001-0.257,0.267-0.426,0.499-0.315l4.788,2.302
				c0.12,0.058,0.197,0.18,0.197,0.314v10.883C28.699,27.384,28.486,27.518,28.303,27.43L28.303,27.43z M28.303,27.43"/>
			<path fill="#686868" d="M23.253,25.002l-5.466-2.628l5.262-8.663c0.093-0.153,0.287-0.211,0.448-0.133l4.855,2.335
				c0.186,0.089,0.253,0.319,0.146,0.495L23.253,25.002z M23.253,25.002"/>
			<path fill="#5B5B5B" d="M23.253,25.002l-5.466-2.628l-5.01-8.158c-0.14-0.227,0.103-0.496,0.344-0.381l4.666,2.244L23.253,25.002
				z M23.253,25.002"/>
			<path fill="#4F4F4F" d="M17.391,27.429l-4.934-2.372c-0.096-0.046-0.156-0.143-0.156-0.249V13.866
				c0-0.197,0.206-0.326,0.383-0.241l5.103,2.454v11.102C17.787,27.384,17.575,27.517,17.391,27.429L17.391,27.429z M17.391,27.429"
				/>
		</g>
	</g>
	<path clip-path="url(#SVGID_2_)" fill="#4F4F4F" d="M20.5,41C9.196,41,0,31.804,0,20.5S9.196,0,20.5,0S41,9.196,41,20.5
		S31.804,41,20.5,41z M20.5,1C9.748,1,1,9.748,1,20.5S9.748,40,20.5,40S40,31.252,40,20.5S31.252,1,20.5,1z"/>
</g>
</svg>
