<?xml version="1.0" encoding="utf-8"?>
<!-- Generator: Adobe Illustrator 17.0.0, SVG Export Plug-In . SVG Version: 6.00 Build 0)  -->
<!DOCTYPE svg PUBLIC "-//W3C//DTD SVG 1.1//EN" "http://www.w3.org/Graphics/SVG/1.1/DTD/svg11.dtd">
<svg version="1.1" id="Слой_1" xmlns="http://www.w3.org/2000/svg" xmlns:xlink="http://www.w3.org/1999/xlink" x="0px" y="0px"
	 width="112px" height="109px" viewBox="0 0 112 109" enable-background="new 0 0 112 109" xml:space="preserve">
<g>
	<path fill="#E1F2F2" d="M62.935,67.657v3.775c0,2.794-2.265,5.034-5.034,5.034h-3.775c-2.794,0-5.034-2.24-5.034-5.034v-3.775
		H62.935z"/>
	<g>
		<path fill="#FFFFFF" d="M32.719,60.11c0,2.78,2.254,5.034,5.034,5.034h36.495c2.78,0,5.034-2.254,5.034-5.034V41.863H32.719V60.11
			z"/>
		<rect x="1.57" y="24.243" fill="#FFFFFF" width="5.54" height="3.23"/>
		<polygon fill="#FFFFFF" points="110.43,24.243 104.891,24.243 104.891,15.854 101.198,15.854 101.198,40.604 104.891,40.604 
			104.891,27.473 110.43,27.473 		"/>
		<rect x="10.89" y="24.243" fill="#FFFFFF" width="89.915" height="3.23"/>
		<rect x="7.111" y="15.854" fill="#FFFFFF" width="3.692" height="24.75"/>
	</g>
	<g>
		<rect x="24.225" y="95.242" fill="#DADEEF" width="66.069" height="12.585"/>
		<g>
			<path fill="#656A86" d="M31.719,60.111c0,3.327,2.707,6.033,6.034,6.033h36.495c3.327,0,6.034-2.706,6.034-6.033V40.863H31.719
				V60.111z M33.719,42.863h44.563v17.248c0,2.224-1.81,4.033-4.034,4.033H57.92c-0.007,0-0.012-0.004-0.019-0.004h-3.775
				c-0.007,0-0.013,0.004-0.019,0.004H37.753c-2.225,0-4.034-1.81-4.034-4.033V42.863z"/>
			<path fill="#656A86" d="M111.43,23.243h-5.539v-7.389c0-0.552-0.448-1-1-1h-3.692c-0.552,0-1,0.448-1,1v7.389H57V6.203
				c0-2.222,1.808-4.03,4.03-4.03h27.69c0.552,0,1-0.448,1-1s-0.448-1-1-1H61.03c-3.325,0-6.03,2.705-6.03,6.03v17.04H11.803v-7.389
				c0-0.552-0.448-1-1-1H7.111c-0.552,0-1,0.448-1,1v7.389H0.57v5.23h5.541v12.131c0,0.552,0.448,1,1,1h3.692c0.552,0,1-0.448,1-1
				V28.473H55v4.839H20.03c-0.552,0-1,0.448-1,1s0.448,1,1,1h71.942c0.552,0,1-0.448,1-1s-0.448-1-1-1H57v-4.839h43.198v12.131
				c0,0.552,0.448,1,1,1h3.692c0.552,0,1-0.448,1-1V28.473h5.539V23.243z M2.57,26.473v-1.23h3.541v1.23H2.57z M8.111,39.604v-22.75
				h1.692v7.374c0,0.005-0.003,0.009-0.003,0.015s0.003,0.009,0.003,0.015v3.201c0,0.005-0.003,0.009-0.003,0.015
				s0.003,0.009,0.003,0.015v12.117H8.111z M11.803,26.473v-1.23h88.396v1.23H11.803z M102.198,39.604V27.48
				c0-0.003,0.001-0.005,0.001-0.007s-0.001-0.005-0.001-0.007V24.25c0-0.003,0.001-0.005,0.001-0.007s-0.001-0.005-0.001-0.007
				v-7.381h1.692v7.384c0,0.002-0.001,0.003-0.001,0.005s0.001,0.003,0.001,0.005v3.22c0,0.002-0.001,0.003-0.001,0.005
				s0.001,0.003,0.001,0.005v12.127H102.198z M109.43,26.473h-3.539v-1.23h3.539V26.473z"/>
			<path fill="#656A86" d="M78.169,86.76c0,0.553,0.448,1,1,1h4.505c0.552,0,1-0.447,1-1s-0.448-1-1-1h-4.505
				C78.617,85.76,78.169,86.208,78.169,86.76z"/>
			<path fill="#656A86" d="M61.022,87.735h12.71c0.552,0,1-0.447,1-1s-0.448-1-1-1h-12.71c-2.225,0-4.034-1.81-4.034-4.028
				l0.021-4.24h0.892c3.327,0,6.034-2.707,6.034-6.034v-4.775H48.092v4.775c0,3.327,2.707,6.034,6.034,6.034h0.884l-0.021,4.235
				C54.988,85.029,57.695,87.735,61.022,87.735z M50.092,71.432v-2.775h11.843v2.775c0,2.225-1.81,4.034-4.034,4.034h-3.775
				C51.901,75.466,50.092,73.657,50.092,71.432z"/>
			<path fill="#656A86" d="M23.224,108.827h68.069V94.243H23.224V108.827z M25.224,96.243h64.069v10.584H25.224V96.243z"/>
		</g>
	</g>
</g>
</svg>
