<?xml version="1.0" encoding="utf-8"?>
<!-- Generator: Adobe Illustrator 17.0.0, SVG Export Plug-In . SVG Version: 6.00 Build 0)  -->
<!DOCTYPE svg PUBLIC "-//W3C//DTD SVG 1.1//EN" "http://www.w3.org/Graphics/SVG/1.1/DTD/svg11.dtd">
<svg version="1.1" id="Слой_1" xmlns="http://www.w3.org/2000/svg" xmlns:xlink="http://www.w3.org/1999/xlink" x="0px" y="0px"
	 width="124px" height="122px" viewBox="0 0 124 122" enable-background="new 0 0 124 122" xml:space="preserve">
<g>
	<path fill="#FFFFFF" d="M26.521,59.877L2.197,17.28C0.709,14.675,1.6,11.341,4.228,9.84l14.207-8.113
		c2.605-1.487,5.953-0.573,7.44,2.031l24.325,42.597"/>
	<polyline fill="#FFFFFF" points="42.139,83.568 40.559,84.468 24.319,107.358 24.309,107.368 85.059,107.368 85.049,107.358 
		64.249,70.938 62.649,71.848 	"/>
	<g>
		<circle fill="#DADEEF" cx="104.115" cy="14.647" r="6.135"/>
		<path fill="#DADEEF" d="M71.395,28.27c2.999,0,5.453-2.427,5.453-5.453V6.457c0-2.999-2.454-5.453-5.453-5.453h-49.08
			c-0.273,0-0.518,0.027-0.763,0.055L39.875,28.27H71.395z"/>
		<circle fill="#DADEEF" cx="44.961" cy="64.685" r="19.087"/>
		<rect x="7.318" y="107.363" fill="#DADEEF" width="115.202" height="13.633"/>
	</g>
	<circle fill="#FFFFFF" cx="44.961" cy="64.685" r="8.18"/>
	<g>
		<path fill="#656A86" d="M85.633,106.363l-21.01-36.787L64.4,69.702c1.316-5.093,0.619-10.401-1.995-14.978
			c-2.56-4.483-6.731-7.737-11.542-9.224l-9.268-16.23h29.8c3.559,0,6.454-2.895,6.454-6.453v-1.049h25.266v12.837H88.413
			l6.102,13.345c0.229,0.501,0.82,0.722,1.325,0.493c0.502-0.229,0.723-0.822,0.493-1.325l-4.807-10.513h25.176l-4.806,10.513
			c-0.229,0.503-0.009,1.096,0.493,1.325c0.135,0.062,0.276,0.091,0.415,0.091c0.38,0,0.742-0.217,0.91-0.584l6.101-13.345h-14.701
			V21.703c3.462-0.489,6.136-3.462,6.136-7.056c0-3.902-3.149-7.077-7.039-7.13c-0.032-0.003-0.06-0.019-0.092-0.019H77.849V6.457
			c0-3.559-2.896-6.453-6.454-6.453h-49.08c-0.213,0-0.403,0.023-0.598,0.041c-1.31-0.123-2.619,0.151-3.778,0.814L3.732,8.972
			c-3.09,1.765-4.168,5.714-2.403,8.804l24.125,42.247c-1.147,4.795-0.567,10.014,2.065,14.623c2.661,4.66,7.061,8.001,12.115,9.399
			L23.8,106.363H6.318v15.634H123.52v-15.634H85.633z M109.25,14.647c0,2.814-2.278,5.103-5.087,5.13
			c-0.015-0.001-0.028-0.009-0.044-0.009h-0.14c-2.767-0.074-5-2.336-5-5.121c0-2.831,2.304-5.135,5.135-5.135
			C106.947,9.512,109.25,11.816,109.25,14.647z M99.188,9.499c-1.358,1.3-2.208,3.125-2.208,5.148c0,2.009,0.838,3.823,2.178,5.121
			H77.849V9.499H99.188z M75.848,6.457v16.36c0,2.455-1.998,4.453-4.454,4.453H40.453L26.743,3.262
			c-0.265-0.464-0.587-0.882-0.948-1.259h45.6C73.85,2.003,75.848,4.001,75.848,6.457z M3.065,16.784
			c-1.217-2.132-0.473-4.857,1.659-6.075l14.207-8.113c0.755-0.43,1.604-0.621,2.457-0.57c0.046,0.008,0.094,0.012,0.142,0.014
			c0.261,0.024,0.522,0.063,0.781,0.134c1.152,0.314,2.109,1.053,2.696,2.081l23.195,40.619c-1.069-0.176-2.156-0.278-3.258-0.278
			c-3.472,0-6.911,0.915-9.943,2.646c-4.153,2.372-7.131,6.014-8.741,10.159L3.065,16.784z M29.255,73.654
			c-2.425-4.246-2.924-9.069-1.792-13.468c0.014-0.043,0.021-0.086,0.029-0.131c1.198-4.521,4.128-8.58,8.5-11.077
			c2.731-1.559,5.827-2.383,8.952-2.383c1.684,0,3.335,0.24,4.915,0.688c0.047,0.017,0.091,0.033,0.139,0.043
			c4.449,1.298,8.315,4.268,10.67,8.391c2.396,4.194,3.014,9.071,1.742,13.732c-1.272,4.66-4.284,8.546-8.479,10.942
			c-2.731,1.56-5.826,2.384-8.95,2.384h-0.001C38.493,82.774,32.468,79.28,29.255,73.654z M41.247,85.227l1.102-0.627
			c0.866,0.115,1.744,0.175,2.631,0.175c0,0,0,0,0.001,0c3.472,0,6.91-0.916,9.942-2.647c3.856-2.201,6.791-5.548,8.496-9.567
			l0.457-0.26l19.454,34.063H26.252L41.247,85.227z M121.52,119.997H8.318v-11.634h13.496l-0.005,0.005h63.25l1.288-0.005h35.172
			V119.997z"/>
		<path fill="#656A86" d="M52.933,60.132c-1.63-2.855-4.688-4.629-7.979-4.629c-1.587,0-3.159,0.418-4.545,1.21
			c-4.395,2.51-5.929,8.128-3.419,12.524c1.63,2.854,4.688,4.629,7.979,4.629h0c1.587,0,3.158-0.418,4.544-1.21
			C53.909,70.147,55.443,64.528,52.933,60.132z M44.97,71.867L44.97,71.867c-2.576,0-4.968-1.388-6.243-3.621
			c-1.963-3.438-0.764-7.832,2.674-9.796c1.084-0.619,2.313-0.946,3.553-0.946c2.575,0,4.967,1.388,6.243,3.621
			c1.963,3.438,0.764,7.832-2.675,9.796C47.438,71.54,46.209,71.867,44.97,71.867z"/>
	</g>
</g>
</svg>
