<?xml version="1.0" encoding="utf-8"?>
<!-- Generator: Adobe Illustrator 17.0.0, SVG Export Plug-In . SVG Version: 6.00 Build 0)  -->
<!DOCTYPE svg PUBLIC "-//W3C//DTD SVG 1.1//EN" "http://www.w3.org/Graphics/SVG/1.1/DTD/svg11.dtd">
<svg version="1.1" id="Слой_1" xmlns="http://www.w3.org/2000/svg" xmlns:xlink="http://www.w3.org/1999/xlink" x="0px" y="0px"
	 width="119px" height="117px" viewBox="0 0 119 117" enable-background="new 0 0 119 117" xml:space="preserve">
<g>
	<path fill="#FFFFFF" d="M1.477,38.139L1.473,6.026c0-2.627,2.126-4.776,4.776-4.776h106.497c2.627,0,4.776,2.149,4.776,4.776v34.1
		L1.477,38.139z"/>
	<path fill="#FFFFFF" d="M1.477,18.138v20v36.1c0,2.62,2.16,4.78,4.78,4.78h1.44h35.95L1.477,18.138z"/>
	<path fill="#FFFFFF" d="M117.527,20.128v20v34.11c0,2.62-2.13,4.78-4.77,4.78h-1.45h-35.96L117.527,20.128z"/>
	<path fill="#DADEEF" d="M75.397,79.008h35.91v0.01v31.29c0,3.03-2.43,5.45-5.45,5.45h-92.71c-3,0-5.45-2.42-5.45-5.45v-31.29v-0.01
		h35.9H75.397z"/>
	<path fill="#DADEEF" d="M17.833,40.501V23.068c0-2.627,2.126-4.776,4.776-4.776h73.777c2.627,0,4.776,2.149,4.776,4.776v17.434
		H17.833z"/>
	<path fill="#FDCC5A" d="M17.814,48.993V59.9c0,1.036,0.164,2.072,0.464,3.054c2.972,9.98,20.314,17.614,41.227,17.614
		c20.886,0,38.228-7.635,41.2-17.614c0.3-0.982,0.464-2.018,0.464-3.054v-10v-0.907H17.814z"/>
	<ellipse fill="#FFFFFF" cx="59.491" cy="48.982" rx="41.665" ry="20.691"/>
	<path fill="#FDCC5A" d="M54.579,36.779c-6.272-0.577-9.102,2.693-10.678,5.382l-6.706-1.029c-0.165-0.026-0.338-0.009-0.484,0.045
		c-0.145,0.054-0.249,0.14-0.291,0.241l-1.102,2.725c-0.082,0.213,0.125,0.424,0.465,0.476l6.461,0.992
		c-0.185,0.467-0.364,0.941-0.541,1.415l-6.492-0.995c-0.343-0.054-0.688,0.075-0.774,0.286l-1.102,2.722
		c-0.085,0.215,0.125,0.424,0.465,0.476l6.659,1.024c-0.157,0.425-0.317,0.844-0.481,1.254c-0.027,0.031-0.05,0.063-0.062,0.098
		l-1.525,3.757c-0.041,0.1-0.016,0.209,0.072,0.298c0.087,0.089,0.228,0.154,0.393,0.178l4.726,0.725
		c0.167,0.026,0.342,0.009,0.489-0.046c0.145-0.055,0.249-0.144,0.289-0.247c0.294-0.795,0.641-1.684,0.741-1.881
		c0.025-0.028,0.042-0.058,0.055-0.089c0.284-0.7,0.893-1.009,1.8-0.984l8.279,1.271c0.02,0.003,0.04,0.006,0.062,0.008
		l11.486,1.761c0.613,0.152,0.823,0.418,0.671,0.789c-0.012,0.028-0.017,0.057-0.02,0.084c-0.062,0.195-0.436,1.09-0.781,1.89
		c-0.087,0.19,0.072,0.385,0.362,0.462l5.067,1.353c0.172,0.046,0.369,0.043,0.536-0.008c0.17-0.052,0.292-0.146,0.337-0.258
		l1.436-3.546c0.162-0.401,0.332-0.795,0.496-1.187l0.157-0.373l6.74,1.032c0.342,0.054,0.688-0.075,0.773-0.286l1.102-2.72
		c0.105-0.221-0.125-0.424-0.464-0.476l-6.643-1.021c0.209-0.479,0.406-0.947,0.593-1.411l6.621,1.018
		c0.165,0.026,0.339,0.009,0.484-0.045c0.145-0.052,0.249-0.14,0.289-0.241l1.105-2.723c0.012-0.031,0.02-0.063,0.02-0.095
		c0-0.071-0.03-0.141-0.092-0.203c-0.085-0.089-0.227-0.154-0.392-0.178l-6.758-1.038c0.362-1.256,0.536-2.327,0.536-3.268
		c0-3.347-2.234-5.386-7.032-6.419c-4.758-1.026-8.292-0.402-10.765,1.91C60.085,38.057,57.876,37.08,54.579,36.779z M55.784,49.122
		l-7.613-1.168c0.022-0.061,0.047-0.124,0.07-0.19c0.479-1.334,1.374-3.817,3.521-4.635c0.728-0.278,1.544-0.342,2.491-0.197
		c1.716,0.264,2.549,1.111,2.549,2.591c0,1.251-0.593,2.622-0.985,3.528L55.784,49.122z M68.507,43.774
		c1.863,0.286,2.768,1.257,2.768,2.971c0,1.546-0.768,3.334-1.227,4.401l-0.065,0.155l-8.516-1.306
		c0.035-0.094,0.07-0.192,0.107-0.295c0.603-1.655,1.726-4.733,4.277-5.703C66.646,43.695,67.514,43.622,68.507,43.774z"/>
	<g>
		<path fill="#656A86" d="M68.012,11.411h18.405c0.553,0,1-0.448,1-1s-0.447-1-1-1H68.012c-0.552,0-1,0.448-1,1
			S67.46,11.411,68.012,11.411z"/>
		<path fill="#656A86" d="M118.522,20.103V6.026c0-3.185-2.591-5.776-5.776-5.776h-6.859c-0.012,0-0.022-0.007-0.034-0.007H13.147
			c-0.012,0-0.022,0.006-0.034,0.007H6.249c-3.185,0-5.776,2.591-5.776,5.776l0.004,32.113v36.099c0,3.188,2.593,5.78,5.78,5.78
			h0.44v30.289c0,3.557,2.894,6.45,6.45,6.45h92.71c3.556,0,6.449-2.894,6.449-6.45V80.018h0.45c3.182,0,5.771-2.593,5.771-5.78
			v-54.11C118.527,20.119,118.523,20.112,118.522,20.103z M110.307,110.307c0,2.454-1.996,4.45-4.449,4.45h-92.71
			c-2.454,0-4.45-1.996-4.45-4.45V80.018H43.49c4.951,1,10.355,1.55,16.014,1.55c5.655,0,11.056-0.55,16.003-1.55h34.799V110.307z
			 M18.814,55.524c5.471,8.772,21.636,15.148,40.677,15.148c19.041,0,35.205-6.376,40.677-15.147V59.9
			c0,0.922-0.141,1.851-0.421,2.769c-2.87,9.634-20.171,16.899-40.242,16.899c-20.088,0-37.4-7.266-40.271-16.907
			c-0.279-0.911-0.42-1.84-0.42-2.761V55.524z M18.826,48.982c0-10.857,18.242-19.69,40.665-19.69s40.665,8.833,40.665,19.69
			s-18.242,19.69-40.665,19.69S18.826,59.839,18.826,48.982z M112.757,78.018h-0.45v-0.011H83.122
			c9.738-3.253,16.674-8.501,18.539-14.762c0.336-1.101,0.507-2.226,0.507-3.346V48.994c0-0.026-0.013-0.048-0.015-0.073
			c-0.066-11.932-19.177-21.629-42.662-21.629c-23.483,0-42.592,9.696-42.662,21.626c-0.002,0.027-0.015,0.049-0.015,0.076V59.9
			c0,1.119,0.171,2.245,0.505,3.339c1.866,6.265,8.807,11.515,18.552,14.769H7.697l-1,0.011h-0.44c-2.084,0-3.78-1.696-3.78-3.78
			v-56.1c0-0.005-0.003-0.009-0.003-0.014L2.473,6.026c0-2.083,1.694-3.776,3.776-3.776h106.497c2.082,0,3.776,1.694,3.776,3.776
			v34.1c0,0.009,0.005,0.016,0.005,0.024v34.088C116.527,76.322,114.836,78.018,112.757,78.018z"/>
		<path fill="#656A86" d="M91.188,11.411h4.771c0.553,0,1-0.448,1-1s-0.447-1-1-1h-4.771c-0.553,0-1,0.448-1,1
			S90.636,11.411,91.188,11.411z"/>
		<path fill="#656A86" d="M96.386,17.291H22.609c-3.186,0-5.777,2.591-5.777,5.776v17.434c0,0.553,0.448,1,1,1s1-0.447,1-1V23.067
			c0-2.083,1.694-3.776,3.777-3.776h73.776c2.083,0,3.777,1.694,3.777,3.776v17.434c0,0.553,0.447,1,1,1s1-0.447,1-1V23.067
			C102.163,19.882,99.571,17.291,96.386,17.291z"/>
		<path fill="#656A86" d="M33.649,50.503l5.427,0.835c-0.039,0.064-0.068,0.125-0.086,0.178l-1.521,3.748
			c-0.198,0.476-0.09,1.006,0.282,1.384c0.24,0.244,0.581,0.409,0.954,0.465l4.721,0.724c0.333,0.054,0.682,0.021,1.004-0.1
			c0.412-0.159,0.718-0.449,0.868-0.834c0.303-0.82,0.572-1.499,0.668-1.719c0.043-0.068,0.082-0.142,0.116-0.222
			c0.057-0.141,0.142-0.352,0.797-0.36l19.457,2.979c-0.132,0.325-0.342,0.827-0.591,1.406c-0.154,0.336-0.153,0.721,0.004,1.055
			c0.179,0.38,0.546,0.668,1.008,0.791l5.068,1.353c0.165,0.044,0.337,0.066,0.512,0.066c0.197,0,0.39-0.027,0.58-0.086
			c0.456-0.142,0.808-0.447,0.965-0.837l1.437-3.547c0.11-0.271,0.224-0.54,0.336-0.807l0.01-0.021l5.966,0.913
			c0.821,0.124,1.596-0.256,1.855-0.897l1.08-2.669c0.17-0.36,0.161-0.767-0.024-1.117c-0.046-0.085-0.101-0.166-0.164-0.239
			c0.075-0.018,0.148-0.04,0.218-0.065c0.417-0.152,0.728-0.44,0.873-0.805l1.104-2.723l0.094-0.277v-0.195
			c0-0.342-0.139-0.666-0.37-0.894c-0.238-0.25-0.583-0.419-0.963-0.475l-5.667-0.871c0.197-0.894,0.294-1.701,0.294-2.447
			c0-3.844-2.559-6.263-7.821-7.396c-4.594-0.988-8.19-0.497-10.845,1.478c-1.377-1.378-3.598-2.214-6.623-2.49
			c-4.984-0.457-8.688,1.269-11.274,5.289l-6.043-0.927c-0.333-0.054-0.681-0.021-0.99,0.094c-0.412,0.153-0.72,0.438-0.87,0.804
			l-1.107,2.739c-0.139,0.358-0.107,0.756,0.086,1.09c0.04,0.069,0.087,0.135,0.139,0.196c-0.51,0.116-0.921,0.434-1.101,0.874
			l-1.105,2.729c-0.142,0.359-0.113,0.758,0.08,1.094C32.711,50.156,33.135,50.425,33.649,50.503z M35.222,47.045l7.135,1.093
			l0.284-0.763c0.174-0.468,0.352-0.936,0.534-1.396l0.462-1.166l-7.071-1.086l0.639-1.581l7.215,1.106l0.343-0.586
			c1.354-2.31,3.873-5.437,9.724-4.892c2.975,0.271,4.94,1.099,5.84,2.46l0.653,0.986l0.864-0.808
			c2.229-2.083,5.443-2.617,9.871-1.663c5.533,1.191,6.243,3.534,6.243,5.441c0,0.851-0.163,1.829-0.497,2.992l-0.314,1.092
			l7.249,1.114l-0.641,1.579l-7.24-1.112l-0.296,0.733c-0.185,0.455-0.377,0.914-0.583,1.385l-0.521,1.192l7.298,1.121l-0.64,1.576
			l-7.349-1.124l-0.613,1.456c-0.116,0.276-0.234,0.554-0.348,0.835l-1.287,3.178l-4.292-1.146c0.208-0.492,0.44-1.053,0.501-1.247
			l0.033-0.116c0.128-0.385,0.105-0.778-0.068-1.12c-0.339-0.666-1.083-0.85-1.417-0.928l-19.827-3.04l-0.25-0.013
			c-1.616,0-2.302,0.892-2.577,1.489l-0.072,0.133c-0.125,0.244-0.43,1.034-0.646,1.611l-3.923-0.602l1.267-3.067
			c0.168-0.418,0.331-0.846,0.491-1.279l0.425-1.148l-7.241-1.114L35.222,47.045z"/>
		<path fill="#656A86" d="M56.739,49.438c0.423-0.979,1.063-2.461,1.063-3.914c0-1.142-0.441-3.124-3.397-3.58
			c-1.116-0.17-2.113-0.087-2.999,0.251c-2.582,0.983-3.611,3.853-4.111,5.245l-0.482,1.318l9.561,1.467L56.739,49.438z
			 M55.167,48.016l-5.627-0.863c0.479-1.166,1.252-2.585,2.578-3.089c0.565-0.217,1.208-0.261,1.982-0.144
			c1.57,0.242,1.701,0.955,1.701,1.604C55.801,46.317,55.487,47.234,55.167,48.016z"/>
		<path fill="#656A86" d="M70.967,51.541c0.489-1.139,1.308-3.044,1.308-4.796c0-2.196-1.284-3.603-3.616-3.959
			c-1.156-0.177-2.205-0.085-3.164,0.276c-2.978,1.132-4.202,4.49-4.86,6.293l-0.537,1.441l10.506,1.612L70.967,51.541z
			 M69.365,50.195l-6.533-1.002c0.603-1.537,1.606-3.59,3.372-4.261c0.639-0.241,1.333-0.294,2.151-0.17
			c1.593,0.244,1.919,0.969,1.919,1.982C70.274,47.857,69.78,49.197,69.365,50.195z"/>
		<path fill="#656A86" d="M70.237,89.568c-0.552,0-1,0.447-1,1s0.448,1,1,1h5.454c0.553,0,1-0.447,1-1s-0.447-1-1-1H70.237z"/>
		<path fill="#656A86" d="M62.227,89.568h-5.453c-0.552,0-1,0.447-1,1s0.448,1,1,1h5.453c0.552,0,1-0.447,1-1
			S62.779,89.568,62.227,89.568z"/>
		<path fill="#656A86" d="M48.764,89.568h-5.453c-0.552,0-1,0.447-1,1s0.448,1,1,1h5.453c0.552,0,1-0.447,1-1
			S49.316,89.568,48.764,89.568z"/>
		<path fill="#656A86" d="M75.69,96.385h-5.454c-0.552,0-1,0.447-1,1s0.448,1,1,1h5.454c0.553,0,1-0.447,1-1
			S76.243,96.385,75.69,96.385z"/>
		<path fill="#656A86" d="M62.227,96.385h-5.453c-0.552,0-1,0.447-1,1s0.448,1,1,1h5.453c0.552,0,1-0.447,1-1
			S62.779,96.385,62.227,96.385z"/>
		<path fill="#656A86" d="M48.764,96.385h-5.453c-0.552,0-1,0.447-1,1s0.448,1,1,1h5.453c0.552,0,1-0.447,1-1
			S49.316,96.385,48.764,96.385z"/>
		<path fill="#656A86" d="M75.69,103.202h-5.454c-0.552,0-1,0.447-1,1s0.448,1,1,1h5.454c0.553,0,1-0.447,1-1
			S76.243,103.202,75.69,103.202z"/>
		<path fill="#656A86" d="M62.227,103.202h-5.453c-0.552,0-1,0.447-1,1s0.448,1,1,1h5.453c0.552,0,1-0.447,1-1
			S62.779,103.202,62.227,103.202z"/>
		<path fill="#656A86" d="M48.764,103.202h-5.453c-0.552,0-1,0.447-1,1s0.448,1,1,1h5.453c0.552,0,1-0.447,1-1
			S49.316,103.202,48.764,103.202z"/>
	</g>
</g>
</svg>
