<?xml version="1.0" encoding="utf-8"?>
<!-- Generator: Adobe Illustrator 17.0.0, SVG Export Plug-In . SVG Version: 6.00 Build 0)  -->
<!DOCTYPE svg PUBLIC "-//W3C//DTD SVG 1.1//EN" "http://www.w3.org/Graphics/SVG/1.1/DTD/svg11.dtd">
<svg version="1.1" id="Слой_1" xmlns="http://www.w3.org/2000/svg" xmlns:xlink="http://www.w3.org/1999/xlink" x="0px" y="0px"
	 width="117px" height="117px" viewBox="0 0 117 117" enable-background="new 0 0 117 117" xml:space="preserve">
<g>
	<path fill="#FFFFFF" d="M49.308,61.265l-1.28-1.28l-0.02,0.02l-22.51,22.48c-0.53,0.54-0.9,1.18-1.08,1.87
		c-0.4,1.42-0.03,3.02,1.08,4.13l3.01,2.99c1.12,1.12,2.72,1.49,4.14,1.09c0.69-0.19,1.33-0.55,1.87-1.09l22.48-22.48l0.02-0.02
		L49.308,61.265z M29.218,90.765l-3.01-2.98c-0.71-0.71-1.02-1.67-0.92-2.6l6.48,6.49C30.848,91.745,29.898,91.445,29.218,90.765z"
		/>
	<path fill="#FFFFFF" d="M92.588,84.355c-0.19-0.69-0.55-1.33-1.09-1.87l-22.5-22.48l-0.02-0.02l-1.28,1.28l-6.42,6.42l-1.29,1.29
		l22.5,22.5c0.54,0.54,1.18,0.9,1.86,1.08v0.01c1.43,0.4,3.02,0.03,4.14-1.09l3.01-2.99C92.618,87.375,92.978,85.775,92.588,84.355z
		 M90.798,87.775l-3.02,3c-0.68,0.68-1.64,0.98-2.56,0.91l6.5-6.5C91.808,86.115,91.508,87.065,90.798,87.775z"/>
	<path fill="#FFFFFF" d="M56.998,47.985l-22.48-22.48c-0.54-0.54-1.19-0.91-1.88-1.09c-1.42-0.39-3.01-0.03-4.13,1.09l-3.01,2.99
		c-1.11,1.13-1.48,2.71-1.08,4.13c0.18,0.69,0.55,1.33,1.08,1.87l22.51,22.5l0.02,0.02l1.29-1.29l6.43-6.42h0.01l1.28-1.28
		L56.998,47.985z M26.208,29.205l3.01-3c0.68-0.68,1.63-0.98,2.56-0.9l-6.5,6.47C25.198,30.855,25.508,29.905,26.208,29.205z"/>
	<path fill="#FFFFFF" d="M91.498,28.495l-3.01-2.99c-1.11-1.12-2.71-1.48-4.13-1.09c-0.69,0.18-1.33,0.55-1.87,1.09l-22.52,22.52
		l1.28,1.28h0.01l6.42,6.41l1.3,1.3l22.52-22.52c0.54-0.54,0.9-1.18,1.09-1.87C92.978,31.205,92.618,29.625,91.498,28.495z
		 M85.218,25.305c0.93-0.08,1.89,0.23,2.57,0.91l3,2.98c0.7,0.71,1.01,1.66,0.94,2.58L85.218,25.305z"/>
	<g>
		<path fill="#DADEEF" d="M32.648,92.555v0.01c-0.93,2.39-3.24,4.11-5.97,4.11c-3.52,0-6.35-2.86-6.35-6.38
			c0-2.69,1.71-5.03,4.09-5.94c0.01,0,0.02-0.01,0.03-0.01l0.84,0.84c-0.1,0.93,0.21,1.89,0.92,2.6l3.01,2.98
			c0.68,0.68,1.63,0.98,2.55,0.91L32.648,92.555z"/>
		<path fill="#DADEEF" d="M96.678,90.295c0,3.52-2.84,6.38-6.36,6.38c-2.72,0-5.03-1.72-5.97-4.11v-0.01l0.87-0.87
			c0.92,0.07,1.88-0.23,2.56-0.91l3.02-3c0.71-0.71,1.01-1.66,0.92-2.59l0.84-0.84c0.01,0,0.02,0.01,0.03,0.01
			C94.968,85.265,96.678,87.605,96.678,90.295z"/>
		<path fill="#DADEEF" d="M32.648,24.445l-0.86,0.86h-0.01c-0.93-0.08-1.88,0.22-2.56,0.9l-3.01,3c-0.7,0.7-1.01,1.65-0.93,2.57
			l-0.86,0.85c-2.4-0.9-4.09-3.22-4.09-5.95c0-3.51,2.83-6.35,6.35-6.35c2.72,0,5.05,1.71,5.96,4.09
			C32.638,24.425,32.648,24.435,32.648,24.445z"/>
		<path fill="#DADEEF" d="M96.678,26.675c0,2.73-1.7,5.05-4.09,5.95l-0.86-0.85c0.07-0.92-0.24-1.87-0.94-2.58l-3-2.98
			c-0.68-0.68-1.64-0.99-2.57-0.91h-0.01l-0.86-0.86c0-0.01,0.01-0.02,0.01-0.03c0.91-2.38,3.25-4.09,5.96-4.09
			C93.838,20.325,96.678,23.165,96.678,26.675z"/>
		<circle fill="#DADEEF" cx="58.5" cy="58.493" r="10.604"/>
	</g>
	<g>
		<path fill="#656A86" d="M93.398,83.635c-0.26-0.67-0.65-1.31-1.19-1.86l-22.16-22.14c0.03-0.37,0.06-0.76,0.06-1.14
			s-0.03-0.76-0.06-1.14l22.16-22.15c0.54-0.55,0.92-1.18,1.18-1.86c2.57-1.17,4.29-3.78,4.29-6.67c0-4.05-3.3-7.35-7.36-7.35
			c-2.88,0-5.49,1.71-6.68,4.28c-0.69,0.26-1.32,0.65-1.86,1.19l-22.15,22.15c-0.37-0.03-0.75-0.06-1.13-0.06s-0.75,0.03-1.12,0.06
			l-22.16-22.15c-0.53-0.54-1.17-0.93-1.86-1.19c-1.19-2.57-3.8-4.28-6.68-4.28c-4.05,0-7.35,3.3-7.35,7.35
			c0,2.89,1.71,5.5,4.29,6.67c0.25,0.68,0.64,1.31,1.18,1.86l22.16,22.15c-0.04,0.38-0.06,0.76-0.06,1.14s0.02,0.77,0.06,1.14
			l-22.16,22.14c-0.55,0.55-0.94,1.19-1.19,1.86c-2.57,1.2-4.28,3.79-4.28,6.66c0,4.07,3.3,7.38,7.35,7.38
			c2.86,0,5.48-1.72,6.69-4.31c0.69-0.26,1.32-0.65,1.85-1.18l22.15-22.15c0.37,0.04,0.75,0.06,1.13,0.06s0.76-0.02,1.14-0.06
			l22.14,22.15c0.53,0.53,1.17,0.92,1.85,1.18c1.21,2.59,3.83,4.31,6.69,4.31c4.06,0,7.36-3.31,7.36-7.38
			C97.678,87.425,95.968,84.825,93.398,83.635z M90.318,95.675c-1.64,0-3.17-0.77-4.19-2.02c1.16-0.14,2.23-0.64,3.06-1.47
			l3.02-2.99c0.86-0.86,1.33-1.94,1.47-3.06c1.23,1,2,2.52,2,4.16C95.678,93.255,93.268,95.675,90.318,95.675z M58.498,68.095
			c-0.96,0-1.89-0.14-2.77-0.41c-3.07-0.93-5.49-3.35-6.42-6.42c-0.27-0.88-0.41-1.81-0.41-2.77c0-0.49,0.05-0.97,0.12-1.44v-0.04
			c0.07-0.44,0.17-0.87,0.3-1.29c0.92-3.08,3.36-5.5,6.43-6.42h0.01c0.41-0.13,0.82-0.22,1.25-0.29c0.1,0.01,0.19-0.02,0.28-0.04
			c0.4-0.05,0.8-0.09,1.21-0.09c0.41,0,0.81,0.04,1.21,0.09c0.09,0.02,0.19,0.05,0.29,0.04c0.43,0.07,0.84,0.16,1.25,0.29h0.01
			c3.07,0.92,5.49,3.34,6.42,6.41c0.13,0.42,0.23,0.85,0.3,1.3v0.03c0.08,0.47,0.13,0.95,0.13,1.45c0,0.96-0.14,1.89-0.41,2.77
			c-0.93,3.07-3.35,5.49-6.42,6.42C60.398,67.955,59.468,68.095,58.498,68.095z M31.768,91.675c-0.92,0.07-1.87-0.23-2.55-0.91
			l-3.01-2.98c-0.71-0.71-1.02-1.67-0.92-2.6c0.01-0.14,0.03-0.27,0.06-0.41c0.01-0.03,0.01-0.06,0.03-0.09
			c0.13-0.55,0.4-1.07,0.83-1.49l21.23-21.21c1.14,3.6,3.98,6.44,7.58,7.58l-21.21,21.21C33.258,91.325,32.528,91.625,31.768,91.675
			z M26.678,95.675c-2.95,0-5.35-2.42-5.35-5.38c0-1.64,0.76-3.16,2-4.16c0.13,1.12,0.61,2.2,1.47,3.06l3.01,2.99
			c0.83,0.83,1.9,1.33,3.06,1.47C29.858,94.905,28.318,95.675,26.678,95.675z M26.678,21.325c1.65,0,3.18,0.77,4.19,2
			c-1.16,0.14-2.23,0.64-3.06,1.47l-3.02,2.99c-0.85,0.87-1.32,1.96-1.46,3.08c-1.24-1-2-2.53-2-4.19
			C21.328,23.725,23.728,21.325,26.678,21.325z M26.208,29.205l3.01-3c0.68-0.68,1.63-0.98,2.56-0.9h0.01
			c0.75,0.06,1.48,0.36,2.02,0.9l21.21,21.22c-3.6,1.13-6.45,3.98-7.59,7.58l-21.22-21.22c-0.56-0.56-0.87-1.28-0.93-2.01
			C25.198,30.855,25.508,29.905,26.208,29.205z M85.208,25.305h0.01c0.93-0.08,1.89,0.23,2.57,0.91l3,2.98
			c0.7,0.71,1.01,1.66,0.94,2.58c-0.07,0.73-0.38,1.45-0.94,2.01l-21.22,21.23c-1.14-3.61-3.99-6.46-7.59-7.59l21.21-21.22
			C83.728,25.665,84.458,25.365,85.208,25.305z M90.318,21.325c2.95,0,5.36,2.4,5.36,5.35c0,1.66-0.77,3.19-2.01,4.19
			c-0.14-1.12-0.61-2.22-1.46-3.08l-3.01-2.99c-0.84-0.83-1.91-1.33-3.06-1.47C87.138,22.095,88.668,21.325,90.318,21.325z
			 M69.568,61.985l21.22,21.21c0.43,0.42,0.7,0.94,0.84,1.49c0.01,0.03,0.01,0.06,0.03,0.09c0.03,0.14,0.05,0.27,0.06,0.41
			c0.09,0.93-0.21,1.88-0.92,2.59l-3.02,3c-0.68,0.68-1.64,0.98-2.56,0.91c-0.75-0.06-1.49-0.37-2.03-0.91l-21.2-21.21
			C65.578,68.425,68.428,65.585,69.568,61.985z"/>
		<path fill="#656A86" d="M26.689,53.138c1.532,0,3.117-0.141,4.709-0.418c0.544-0.095,0.909-0.613,0.814-1.157
			s-0.612-0.906-1.157-0.814c-1.48,0.258-2.949,0.389-4.367,0.389C13.208,51.138,2.24,40.17,2.24,26.689
			C2.24,13.208,13.208,2.24,26.689,2.24c13.481,0,24.449,10.968,24.449,24.449c0,1.415-0.127,2.844-0.389,4.37
			c-0.093,0.544,0.272,1.062,0.817,1.155c0.546,0.093,1.061-0.273,1.155-0.817c0.28-1.638,0.417-3.178,0.417-4.708
			c0-14.584-11.865-26.449-26.449-26.449S0.24,12.105,0.24,26.689S12.105,53.138,26.689,53.138z"/>
		<path fill="#656A86" d="M65.434,32.213c0.544-0.093,0.91-0.61,0.816-1.154c-0.261-1.526-0.388-2.956-0.388-4.37
			c0-13.481,10.968-24.449,24.448-24.449c13.481,0,24.449,10.968,24.449,24.449c0,13.481-10.968,24.449-24.449,24.449
			c-1.417,0-2.886-0.131-4.366-0.389c-0.55-0.092-1.063,0.27-1.157,0.814s0.27,1.062,0.813,1.157
			c1.594,0.277,3.179,0.418,4.71,0.418c14.584,0,26.449-11.865,26.449-26.449S104.895,0.24,90.311,0.24S63.863,12.105,63.863,26.689
			c0,1.528,0.137,3.068,0.417,4.707C64.372,31.94,64.883,32.307,65.434,32.213z"/>
		<path fill="#656A86" d="M51.564,84.787c-0.544,0.095-0.908,0.612-0.814,1.157c0.258,1.481,0.388,2.951,0.388,4.367
			c0,13.481-10.968,24.449-24.449,24.449c-13.481,0-24.449-10.968-24.449-24.449c0-13.481,10.968-24.449,24.449-24.449
			c1.417,0,2.886,0.131,4.367,0.389c0.549,0.096,1.062-0.27,1.157-0.814c0.095-0.544-0.27-1.062-0.814-1.157
			c-1.593-0.277-3.177-0.418-4.709-0.418c-14.584,0-26.449,11.865-26.449,26.449c0,14.583,11.865,26.449,26.449,26.449
			s26.449-11.865,26.449-26.449c0-1.531-0.141-3.116-0.418-4.71C52.626,85.057,52.111,84.699,51.564,84.787z"/>
		<path fill="#656A86" d="M90.311,63.862c-1.531,0-3.116,0.141-4.71,0.418c-0.544,0.095-0.908,0.613-0.813,1.157
			c0.095,0.544,0.606,0.905,1.157,0.814c1.48-0.258,2.949-0.389,4.366-0.389c13.481,0,24.449,10.968,24.449,24.449
			c0,13.481-10.968,24.449-24.449,24.449c-13.48,0-24.448-10.968-24.448-24.449c0-1.416,0.131-2.885,0.388-4.368
			c0.095-0.544-0.271-1.062-0.814-1.156c-0.543-0.09-1.063,0.271-1.156,0.814c-0.276,1.595-0.417,3.18-0.417,4.709
			c0,14.583,11.864,26.449,26.448,26.449s26.449-11.865,26.449-26.449C116.76,75.727,104.895,63.862,90.311,63.862z"/>
	</g>
</g>
</svg>
