<?xml version="1.0" encoding="utf-8"?>
<!-- Generator: Adobe Illustrator 17.0.0, SVG Export Plug-In . SVG Version: 6.00 Build 0)  -->
<!DOCTYPE svg PUBLIC "-//W3C//DTD SVG 1.1//EN" "http://www.w3.org/Graphics/SVG/1.1/DTD/svg11.dtd">
<svg version="1.1" id="Слой_1" xmlns="http://www.w3.org/2000/svg" xmlns:xlink="http://www.w3.org/1999/xlink" x="0px" y="0px"
	 width="73px" height="118px" viewBox="0 0 73 118" enable-background="new 0 0 73 118" xml:space="preserve">
<g>
	<path fill="#FFFFFF" d="M54.033,85.428V67.432c10.689-6.08,17.914-17.56,17.914-30.757c0-19.577-15.896-35.447-35.447-35.447
		c-19.577,0-35.447,15.869-35.447,35.447c0,13.197,7.198,24.676,17.887,30.757v17.996"/>
	<path fill="#D9DDEE" d="M11.619,101.093c-3.012,0-5.453-2.442-5.453-5.453v-4.772c0-3.012,2.442-5.453,5.453-5.453h49.762
		c3.012,0,5.453,2.442,5.453,5.453v4.772c0,3.012-2.442,5.453-5.453,5.453"/>
	<path fill="#D9DDEE" d="M50.568,101.093h10.813c3.012,0,5.453,2.442,5.453,5.453v4.772c0,3.012-2.442,5.453-5.453,5.453H11.619
		c-3.012,0-5.453-2.442-5.453-5.453v-4.772c0-3.012,2.442-5.453,5.453-5.453h24.293"/>
	<line fill="#FFFFFF" x1="36.5" y1="84.392" x2="36.5" y2="42.129"/>
	<path fill="#E0F1F1" d="M36.523,41.365c-0.191,0.191-0.354,0.382-0.545,0.573c-3.108,3.108-8.18,3.108-11.288,0
		c-3.108-3.108-5.481-16.742-5.481-16.742s13.661,2.345,16.769,5.481c0.191,0.191,0.354,0.382,0.545,0.573"/>
	<line fill="#E0F1F1" x1="35.801" y1="41.773" x2="27.255" y2="33.227"/>
	<path fill="#E0F1F1" d="M48.309,41.944c3.115-3.115,5.469-16.75,5.469-16.75s-13.635,2.354-16.75,5.469s-3.115,8.166,0,11.281
		S45.194,45.059,48.309,41.944z"/>
	<line fill="#E0F1F1" x1="37.199" y1="41.773" x2="45.745" y2="33.227"/>
	<path fill="#656984" d="M61.381,84.415h-6.349V68.009c11.065-6.532,17.914-18.484,17.914-31.333
		c0-20.097-16.35-36.447-36.446-36.447S0.053,16.579,0.053,36.675c0,12.858,6.839,24.81,17.887,31.333v16.406h-6.321
		c-3.558,0-6.453,2.895-6.453,6.453v4.771c0,2.295,1.208,4.309,3.018,5.453c-1.81,1.144-3.018,3.158-3.018,5.453v4.772
		c0,3.559,2.895,6.453,6.453,6.453h49.762c3.559,0,6.453-2.895,6.453-6.453v-4.772c0-2.295-1.208-4.309-3.018-5.453
		c1.81-1.144,3.018-3.158,3.018-5.453v-4.771C67.834,87.31,64.94,84.415,61.381,84.415z M19.435,66.563
		C8.714,60.464,2.053,49.011,2.053,36.675c0-18.994,15.453-34.447,34.447-34.447s34.446,15.453,34.446,34.447
		c0,12.327-6.671,23.779-17.408,29.888l-0.506,0.287v17.564H37.495c0-0.008,0.005-0.015,0.005-0.023V43.636
		c1.503,1.064,3.289,1.645,5.168,1.645c2.398,0,4.652-0.934,6.348-2.629c3.246-3.246,5.502-15.86,5.748-17.288l0.241-1.396
		l-1.396,0.241c-1.404,0.242-13.621,2.429-17.113,5.589c-3.509-3.173-15.714-5.346-17.119-5.586l-1.397-0.24l0.243,1.397
		c0.249,1.427,2.521,14.039,5.759,17.277c1.751,1.751,4.051,2.626,6.351,2.626c1.814,0,3.623-0.553,5.167-1.642v40.762
		c0,0.008,0.005,0.015,0.005,0.023H19.941V66.851L19.435,66.563z M46.452,32.521c-0.391-0.391-1.023-0.391-1.414,0l-7.953,7.953
		c-1.882-2.518-1.846-6.023,0.117-8.499c0.008-0.008,0.019-0.01,0.027-0.018c0.029-0.029,0.041-0.067,0.065-0.099
		c0.139-0.167,0.284-0.331,0.44-0.487c2.112-2.113,10.396-4.075,14.796-4.93c-0.854,4.399-2.817,12.684-4.93,14.796
		c-1.317,1.318-3.069,2.043-4.934,2.043c-1.525,0-2.971-0.493-4.17-1.392l7.954-7.954C46.843,33.544,46.843,32.911,46.452,32.521z
		 M33.989,38.547l-6.027-6.026c-0.391-0.391-1.023-0.391-1.414,0s-0.391,1.023,0,1.414l7.952,7.951
		c-2.732,2.037-6.624,1.824-9.104-0.655c-2.108-2.108-4.079-10.39-4.939-14.789c4.365,0.844,12.54,2.776,14.744,4.883
		C33.765,33.478,33.366,36.117,33.989,38.547z M65.834,95.64c0,2.455-1.998,4.453-4.453,4.453H50.569c-0.553,0-1,0.447-1,1
		s0.447,1,1,1h10.813c2.455,0,4.453,1.998,4.453,4.453v4.772c0,2.455-1.998,4.453-4.453,4.453H11.619
		c-2.456,0-4.453-1.998-4.453-4.453v-4.772c0-2.455,1.998-4.453,4.453-4.453h24.293c0.552,0,1-0.447,1-1s-0.448-1-1-1H11.619
		c-2.456,0-4.453-1.998-4.453-4.453v-4.771c0-2.455,1.998-4.453,4.453-4.453h7.258c0.022,0.001,0.041,0.013,0.063,0.013
		s0.041-0.011,0.063-0.013H53.97c0.022,0.001,0.041,0.013,0.063,0.013s0.041-0.011,0.063-0.013h7.286
		c2.455,0,4.453,1.998,4.453,4.453V95.64z"/>
</g>
</svg>
