<?xml version="1.0" encoding="utf-8"?>
<!-- Generator: Adobe Illustrator 17.0.0, SVG Export Plug-In . SVG Version: 6.00 Build 0)  -->
<!DOCTYPE svg PUBLIC "-//W3C//DTD SVG 1.1//EN" "http://www.w3.org/Graphics/SVG/1.1/DTD/svg11.dtd">
<svg version="1.1" id="Слой_1" xmlns="http://www.w3.org/2000/svg" xmlns:xlink="http://www.w3.org/1999/xlink" x="0px" y="0px"
	 width="138px" height="93px" viewBox="0 0 138 93" enable-background="new 0 0 138 93" xml:space="preserve">
<g>
	<line fill="#DADEEF" x1="100.762" y1="81.753" x2="54.474" y2="81.753"/>
	<path fill="#DADEEF" d="M44.955,91.954c-5.263,0-9.548-4.282-9.548-9.552c0-5.269,4.28-9.553,9.548-9.553
		c5.269,0,9.557,4.285,9.557,9.553C54.512,87.672,50.224,91.954,44.955,91.954L44.955,91.954z"/>
	<path fill="#DADEEF" d="M134.25,74.548h-3.193c-0.792-4.012-2.183-9.443-4.421-12.336C116.21,48.674,103.11,41.414,86.625,41.414
		c-10.671,0-17.604,1.037-21.234,3.166c-0.491,0.3-1.938,1.146-5.813,8.979c-5.677,0.082-20.715,1.119-27.92,9.252
		c-3.63,4.067-5.049,8.433-5.622,11.709h-1.501c-1.337,0-2.402,1.092-2.402,2.429c0,1.31,1.064,2.402,2.402,2.402h1.201
		c0.027,0.136,0.027,0.218,0.027,0.273c0.136,1.201,1.174,2.129,2.402,2.129h7.26h65.332c-0.015,0.216-0.033,0.43-0.033,0.649
		c0,5.27,4.287,9.552,9.55,9.552c5.263,0,9.55-4.282,9.55-9.552c0-0.219-0.018-0.434-0.033-0.649h9.683
		c1.337,0,2.402-1.064,2.402-2.402h2.375c1.337,0,2.402-1.092,2.402-2.402C136.652,75.612,135.588,74.548,134.25,74.548z"/>
	<g>
		<circle fill="#FDCC5A" cx="44.958" cy="82.401" r="3.5"/>
		<path fill="#FDCC5A" d="M110.274,78.901c-1.929,0-3.499,1.57-3.499,3.5c0,1.931,1.571,3.5,3.499,3.5
			c1.928,0,3.499-1.569,3.499-3.5C113.773,80.471,112.203,78.901,110.274,78.901z"/>
	</g>
	<path fill="#DADEEF" stroke="#656A86" stroke-width="2" stroke-linecap="round" stroke-miterlimit="10" d="M110.274,84.177"/>
	<path fill="#DADEEF" d="M40.892,56.803c0.027,0,0.027-0.027,0.055-0.027h0.027"/>
	<path fill="#FFFFFF" d="M84.967,56.135c0,0.667-0.536,1.207-1.206,1.207H65.036c-0.413,0-0.797-0.216-1.019-0.568
		c-0.224-0.354-0.244-0.794-0.06-1.166c0.882-1.817,2.484-4.965,3.25-5.619c2.55-1.622,7.664-2.39,15.327-2.39
		c0.417,0,0.835,0.005,1.257,0.013c0.652,0.015,1.173,0.552,1.173,1.206L84.967,56.135z"/>
	<path fill="#FFFFFF" d="M87.382,56.135v-6.976c0-0.343,0.151-0.672,0.405-0.901c0.257-0.229,0.598-0.343,0.942-0.297
		c8.486,0.998,15.011,3.805,17.467,7.509c0.247,0.371,0.265,0.845,0.056,1.237c-0.206,0.392-0.619,0.636-1.064,0.636H88.584
		C87.925,57.342,87.382,56.802,87.382,56.135L87.382,56.135z"/>
	<g>
		<path fill="#656A86" d="M134.25,73.548h-2.375c-1.172-5.629-2.667-9.646-4.447-11.946c-10.979-14.256-24.326-21.187-40.803-21.187
			c-10.838,0-17.95,1.08-21.765,3.318c-0.643,0.393-2.13,1.3-5.908,8.838c-6.479,0.155-20.848,1.455-28.042,9.575
			c-2.891,3.239-4.808,7.063-5.703,11.374h-0.674c-1.876,0-3.402,1.538-3.402,3.429c0,1.876,1.526,3.402,3.402,3.402h0.362
			c0.431,1.404,1.741,2.401,3.268,2.401h6.261c0.187,5.655,4.832,10.201,10.53,10.201c5.703,0,10.352-4.546,10.539-10.201h44.247
			c0.187,5.655,4.833,10.201,10.532,10.201s10.346-4.546,10.533-10.201h8.668c1.527,0,2.823-1.013,3.251-2.401h1.524
			c1.876,0,3.402-1.526,3.402-3.402S136.126,73.548,134.25,73.548z M44.955,90.954c-4.713,0-8.548-3.836-8.548-8.552
			s3.834-8.553,8.548-8.553c4.492,0,8.179,3.48,8.523,7.883c0,0.007-0.004,0.013-0.004,0.021c0,0.012,0.006,0.022,0.007,0.034
			c0.015,0.204,0.031,0.408,0.031,0.615C53.512,87.118,49.673,90.954,44.955,90.954z M110.273,90.954
			c-4.715,0-8.55-3.836-8.55-8.552c0-0.205,0.016-0.407,0.031-0.608c0.001-0.014,0.008-0.026,0.008-0.041
			c0-0.009-0.005-0.016-0.005-0.025c0.346-4.401,4.028-7.879,8.516-7.879c4.487,0,8.171,3.478,8.517,7.879
			c0,0.009-0.005,0.016-0.005,0.024c0,0.014,0.008,0.026,0.008,0.041c0.014,0.202,0.031,0.403,0.031,0.609
			C118.824,87.118,114.988,90.954,110.273,90.954z M134.25,78.351h-3.374v1c0,0.786-0.615,1.401-1.401,1.401h-8.792
			c-0.796-5.036-5.154-8.903-10.409-8.903s-9.612,3.868-10.408,8.903H55.37c-0.796-5.036-5.156-8.903-10.415-8.903
			c-5.254,0-9.61,3.868-10.406,8.903h-6.385c-0.695,0-1.302-0.521-1.402-1.196c-0.001-0.091-0.009-0.217-0.046-0.401l-0.161-0.804
			h-2.021c-0.773,0-1.402-0.629-1.402-1.402c0-0.788,0.629-1.429,1.402-1.429h2.341l0.145-0.827
			c0.749-4.279,2.56-8.053,5.386-11.218c2.263-2.554,5.382-4.377,8.728-5.68l0.2-0.006l0.111-0.112
			c7.073-2.677,15.071-3.073,18.148-3.118l0.611-0.009l0.271-0.548c1.697-3.431,4.017-7.702,5.423-8.56
			c3.475-2.038,10.255-3.028,20.728-3.028c15.814,0,28.643,6.675,39.22,20.409c1.65,2.132,3.113,6.253,4.231,11.917l0.159,0.807
			h4.015c0.786,0,1.402,0.615,1.402,1.401C135.652,77.722,135.023,78.351,134.25,78.351z"/>
		<path fill="#656A86" d="M44.958,77.901c-2.48,0-4.498,2.02-4.498,4.501c0,2.48,2.018,4.499,4.498,4.499
			c2.482,0,4.502-2.019,4.502-4.499C49.46,79.921,47.44,77.901,44.958,77.901z M44.958,84.901c-1.377,0-2.498-1.121-2.498-2.499
			c0-1.379,1.121-2.501,2.498-2.501c1.379,0,2.502,1.122,2.502,2.501C47.46,83.78,46.337,84.901,44.958,84.901z"/>
		<path fill="#656A86" d="M83.812,46.612c-0.429-0.009-0.854-0.014-1.277-0.014c-7.981,0-13.17,0.833-15.864,2.547l-0.112,0.083
			c-0.697,0.594-1.875,2.594-3.498,5.937c-0.341,0.69-0.3,1.491,0.11,2.142c0.407,0.648,1.104,1.035,1.865,1.035h18.725
			c1.216,0,2.206-0.99,2.206-2.207l-0.002-7.317C85.964,47.628,85,46.639,83.812,46.612z M83.761,56.342H65.036
			c-0.067,0-0.133-0.038-0.173-0.101c-0.037-0.059-0.04-0.127-0.006-0.196c1.71-3.522,2.643-4.936,2.959-5.257
			c2.36-1.453,7.311-2.189,14.719-2.189c0.41,0,0.821,0.005,1.234,0.014c0.108,0.002,0.196,0.095,0.196,0.205l0.002,7.317
			C83.967,56.251,83.876,56.342,83.761,56.342z"/>
		<path fill="#656A86" d="M88.861,46.968c-0.626-0.085-1.26,0.116-1.745,0.547c-0.467,0.422-0.734,1.021-0.734,1.643v6.977
			c0,1.217,0.988,2.207,2.202,2.207h16.604c0.824,0,1.571-0.449,1.946-1.166c0.384-0.721,0.343-1.587-0.105-2.26
			C104.412,50.969,97.615,47.998,88.861,46.968z M105.366,56.242c-0.031,0.06-0.103,0.1-0.178,0.1H88.584
			c-0.109,0-0.202-0.095-0.202-0.207v-6.977c0-0.056,0.029-0.116,0.07-0.153c0.036-0.032,0.079-0.052,0.146-0.052
			c0.005,0,0.01,0,0.015,0c8.192,0.964,14.454,3.605,16.752,7.07C105.405,56.085,105.407,56.165,105.366,56.242z"/>
		<path fill="#656A86" d="M110.273,77.901c-2.48,0-4.499,2.02-4.499,4.501c0,2.48,2.019,4.499,4.499,4.499
			c2.481,0,4.5-2.019,4.5-4.499C114.773,79.921,112.755,77.901,110.273,77.901z M110.273,84.901c-1.378,0-2.499-1.121-2.499-2.499
			c0-1.379,1.121-2.501,2.499-2.501c1.379,0,2.5,1.122,2.5,2.501C112.773,83.78,111.652,84.901,110.273,84.901z"/>
		<path fill="#656A86" d="M71.264,17.609c3.815,1.188,7.401,2.875,10.658,5.017c0.462,0.304,1.082,0.176,1.385-0.286
			c0.304-0.462,0.175-1.082-0.286-1.386c-3.413-2.244-7.168-4.012-11.163-5.255C48.361,8.392,23.299,21.56,15.99,45.056
			c-1.243,3.996-1.917,8.092-2.004,12.174c-0.012,0.553,0.427,1.01,0.979,1.021c0.007,0,0.015,0,0.022,0
			c0.542,0,0.988-0.434,1-0.979c0.083-3.896,0.727-7.806,1.914-11.623C24.881,23.209,48.82,10.624,71.264,17.609z"/>
		<path fill="#656A86" d="M67.808,28.717c-16.317-5.071-33.724,4.071-38.8,20.39c-0.627,2.017-1.039,3.991-1.258,6.036
			c-0.059,0.549,0.338,1.042,0.888,1.101c0.036,0.004,0.072,0.006,0.107,0.006c0.505,0,0.938-0.381,0.993-0.894
			c0.206-1.914,0.591-3.764,1.18-5.655c4.748-15.265,21.032-23.824,36.296-19.073c1.953,0.607,3.87,1.437,5.698,2.464
			c0.479,0.269,1.09,0.099,1.361-0.382c0.271-0.481,0.1-1.092-0.382-1.362C71.941,30.251,69.895,29.366,67.808,28.717z"/>
		<path fill="#656A86" d="M75.313,4.591c4.887,1.521,9.544,3.696,13.842,6.467c0.465,0.298,1.083,0.166,1.383-0.299
			c0.299-0.465,0.165-1.083-0.299-1.383c-4.451-2.868-9.272-5.121-14.332-6.695C45.233-6.86,12.514,10.333,2.972,41.008
			C1.393,46.083,0.51,51.341,0.348,56.633c-0.017,0.552,0.417,1.013,0.969,1.03c0.011,0,0.021,0,0.031,0
			c0.538,0,0.982-0.428,0.999-0.97c0.156-5.111,1.009-10.189,2.535-15.093C14.096,11.979,45.691-4.623,75.313,4.591z"/>
	</g>
</g>
</svg>
