<?xml version="1.0" encoding="utf-8"?>
<!-- Generator: Adobe Illustrator 17.0.0, SVG Export Plug-In . SVG Version: 6.00 Build 0)  -->
<!DOCTYPE svg PUBLIC "-//W3C//DTD SVG 1.1//EN" "http://www.w3.org/Graphics/SVG/1.1/DTD/svg11.dtd">
<svg version="1.1" id="Слой_1" xmlns="http://www.w3.org/2000/svg" xmlns:xlink="http://www.w3.org/1999/xlink" x="0px" y="0px"
	 width="117px" height="83px" viewBox="0 0 117 83" enable-background="new 0 0 117 83" xml:space="preserve">
<g>
	<path fill="#DADEEF" d="M91.004,10.872h19.305c2.999,0,5.453,2.454,5.453,5.453v59.987c0,2.999-2.454,5.453-5.453,5.453H14.876
		h-8.18c-3.027,0-5.453-2.454-5.453-5.453V16.325c0-2.999,2.427-5.453,5.453-5.453h8.18H26"/>
	<path fill="#FFFFFF" d="M14.878,81.772h-8.18c-3.03,0-5.46-2.46-5.46-5.46v-59.98c0-3,2.43-5.46,5.46-5.46h8.18l-0.004,0.005V81.77
		L14.878,81.772z"/>
	<path fill="#FFFFFF" d="M102.122,10.872h8.18c3.03,0,5.46,2.46,5.46,5.46v59.98c0,3-2.43,5.46-5.46,5.46h-8.18l0.004-0.005V10.874
		L102.122,10.872z"/>
	<polygon fill="#FFFFFF" points="32.004,50.545 58.495,29.506 84.987,50.545 75.624,50.544 75.624,67.668 41.35,67.668 
		41.35,50.544 	"/>
	<path fill="#FFFFFF" d="M77.587,31.858c-0.552,0-1-0.447-1-1c0-9.974-8.114-18.087-18.086-18.087
		c-9.973,0-18.087,8.113-18.087,18.087c0,0.553-0.448,1-1,1s-1-0.447-1-1c0-11.076,9.011-20.087,20.087-20.087
		c11.076,0,20.086,9.011,20.086,20.087C78.587,31.411,78.139,31.858,77.587,31.858z"/>
	<path fill="#FFFFFF" d="M86.668,37.039c-0.058,0-0.116-0.005-0.176-0.016c-0.544-0.096-0.906-0.615-0.81-1.159
		c0.302-1.701,0.448-3.339,0.448-5.006c0-15.235-12.395-27.63-27.63-27.63s-27.63,12.395-27.63,27.63
		c0,1.669,0.146,3.307,0.448,5.006c0.096,0.544-0.267,1.063-0.81,1.159c-0.545,0.101-1.063-0.267-1.16-0.81
		c-0.322-1.816-0.479-3.568-0.479-5.355c0-16.338,13.292-29.63,29.63-29.63s29.63,13.292,29.63,29.63
		c0,1.785-0.157,3.537-0.479,5.355C87.565,36.698,87.143,37.039,86.668,37.039z"/>
	<g>
		<path fill="#656A86" d="M110.309,9.871H91.004c-0.553,0-1,0.447-1,1s0.447,1,1,1h10.122v26.972c-0.007,0-0.014-0.001-0.021-0.001
			c-4.123,0-7.477,3.354-7.477,7.477c0,4.122,3.354,7.476,7.477,7.476c0.007,0,0.014-0.001,0.021-0.001v26.972H15.874V11.871H26
			c0.552,0,1-0.447,1-1s-0.448-1-1-1h-9.045H6.698H6.696c-1.112,0-2.16,0.283-3.075,0.781c-2.014,1.095-3.383,3.23-3.383,5.679
			v59.98c0,3.563,2.898,6.46,6.46,6.46h8.2l4.201-0.002l-0.01-0.005h80.961l-0.005,0.007h10.257c3.563,0,6.46-2.897,6.46-6.46
			v-59.98v-0.006C116.762,12.767,113.868,9.871,110.309,9.871z M101.105,51.794c-3.02,0-5.477-2.456-5.477-5.476
			s2.457-5.477,5.477-5.477c0.007,0,0.014,0.001,0.021,0.001v10.95C101.119,51.793,101.112,51.794,101.105,51.794z M103.126,41.233
			c2.021,0.807,3.454,2.78,3.454,5.085s-1.433,4.278-3.454,5.084V41.233z M103.126,53.509c3.142-0.885,5.454-3.769,5.454-7.19
			c0-3.422-2.312-6.306-5.454-7.191V11.871h7.176c2.459,0,4.46,2.001,4.46,4.46v59.98c0,2.455-1.998,4.453-4.453,4.453h-7.183
			V53.509z M13.874,11.871v68.894H6.696c-2.456,0-4.454-1.998-4.454-4.453V16.325c0-1.535,0.78-2.891,1.965-3.692
			c0.712-0.481,1.569-0.762,2.491-0.762H13.874z"/>
		<path fill="#656A86" d="M41.35,68.668h34.274c0.552,0,1-0.447,1-1V51.544h8.363c0.426,0,0.804-0.27,0.944-0.671
			c0.14-0.401,0.011-0.848-0.322-1.112L59.117,28.723c-0.364-0.289-0.88-0.289-1.244,0L31.381,49.761
			c-0.333,0.265-0.462,0.711-0.322,1.112s0.519,0.671,0.944,0.671h8.346v16.124C40.35,68.221,40.797,68.668,41.35,68.668z
			 M34.871,49.544l23.625-18.761L82.12,49.544h-6.496c-0.552,0-1,0.447-1,1v16.124H42.35V50.544c0-0.553-0.448-1-1-1H34.871z"/>
		<path fill="#656A86" d="M41.414,30.858c0-9.422,7.665-17.087,17.087-17.087c9.421,0,17.086,7.665,17.086,17.087
			c0,1.103,0.897,2,2,2c1.103,0,2-0.897,2-2c0-11.627-9.459-21.087-21.086-21.087c-11.627,0-21.087,9.46-21.087,21.087
			c0,1.103,0.897,2,2,2C40.516,32.858,41.414,31.961,41.414,30.858z M38.414,30.858c0-11.076,9.011-20.087,20.087-20.087
			c11.076,0,20.086,9.011,20.086,20.087c0,0.553-0.448,1-1,1s-1-0.447-1-1c0-9.974-8.114-18.087-18.086-18.087
			c-9.973,0-18.087,8.113-18.087,18.087c0,0.553-0.448,1-1,1S38.414,31.411,38.414,30.858z"/>
		<path fill="#656A86" d="M30.328,38.04c0.119,0,0.24-0.011,0.362-0.033c0.518-0.091,0.977-0.384,1.283-0.822
			c0.306-0.438,0.423-0.969,0.33-1.495c-0.291-1.641-0.433-3.221-0.433-4.832c0-14.684,11.946-26.63,26.63-26.63
			s26.63,11.946,26.63,26.63c0,1.609-0.142,3.189-0.433,4.831c-0.094,0.526,0.024,1.058,0.33,1.496
			c0.306,0.438,0.765,0.73,1.291,0.822c0.116,0.021,0.233,0.031,0.349,0.031c0.971,0,1.798-0.694,1.968-1.651
			c0.333-1.879,0.495-3.688,0.495-5.53c0-16.889-13.741-30.63-30.63-30.63c-16.889,0-30.63,13.74-30.63,30.63
			c0,1.845,0.162,3.654,0.494,5.53C28.536,37.346,29.362,38.04,30.328,38.04z M58.501,1.228c16.338,0,29.63,13.292,29.63,29.63
			c0,1.785-0.157,3.537-0.479,5.355c-0.086,0.484-0.508,0.825-0.983,0.825c-0.058,0-0.116-0.005-0.176-0.016
			c-0.544-0.096-0.906-0.615-0.81-1.159c0.302-1.701,0.448-3.339,0.448-5.006c0-15.235-12.395-27.63-27.63-27.63
			s-27.63,12.395-27.63,27.63c0,1.669,0.146,3.307,0.448,5.006c0.096,0.544-0.267,1.063-0.81,1.159
			c-0.061,0.011-0.121,0.017-0.181,0.017c-0.475,0-0.893-0.344-0.979-0.826c-0.322-1.816-0.479-3.568-0.479-5.355
			C28.871,14.52,42.163,1.228,58.501,1.228z"/>
	</g>
	<circle fill="#FFFFFF" cx="101.105" cy="46.318" r="5.726"/>
</g>
</svg>
