<?xml version="1.0" encoding="utf-8"?>
<!-- Generator: Adobe Illustrator 17.0.0, SVG Export Plug-In . SVG Version: 6.00 Build 0)  -->
<!DOCTYPE svg PUBLIC "-//W3C//DTD SVG 1.1//EN" "http://www.w3.org/Graphics/SVG/1.1/DTD/svg11.dtd">
<svg version="1.1" id="Слой_1" xmlns="http://www.w3.org/2000/svg" xmlns:xlink="http://www.w3.org/1999/xlink" x="0px" y="0px"
	 width="125px" height="122px" viewBox="0 0 125 122" enable-background="new 0 0 125 122" xml:space="preserve">
<g>
	<path fill="#FFFFFF" d="M104.354,80.95v35.09c0,2.73-2.21,4.96-4.96,4.96h-73.78c-2.73,0-4.96-2.23-4.96-4.96V80.97l0.4-0.47h1.31
		l39.89-47.21l40.4,47.21h1.31L104.354,80.95z"/>
	<g>
		<path fill="#DADEEF" d="M62.513,73.854c-4.588,0-8.309,3.72-8.309,8.283c0,3.1,1.687,5.779,4.191,7.217v9.3h8.209v-9.3
			c2.505-1.438,4.192-4.117,4.192-7.217C70.797,77.574,67.077,73.854,62.513,73.854z"/>
		<path fill="#DADEEF" d="M121.043,70.431l-51.734-51.71c-3.77-3.77-9.846-3.77-13.591,0L3.983,70.431
			c-3.77,3.77-3.77,9.846,0,13.616c3.745,3.745,9.821,3.745,13.591,0l3.075-3.075l28.794-28.794l13.07-13.07l13.07,13.07
			l28.769,28.769l3.1,3.1c3.745,3.745,9.821,3.745,13.591,0C124.788,80.277,124.788,74.201,121.043,70.431z"/>
	</g>
	<g>
		<path fill="#646985" d="M53.205,82.137c0,3.128,1.592,6.056,4.191,7.775v9.742h10.209v-9.742c2.6-1.72,4.191-4.647,4.191-7.775
			c0-5.119-4.164-9.283-9.283-9.283C57.381,72.854,53.205,77.018,53.205,82.137z M69.797,82.137c0,2.649-1.379,5.024-3.689,6.351
			l-0.502,0.288v8.879h-6.209v-8.879l-0.502-0.288c-2.31-1.326-3.689-3.701-3.689-6.351c0-4.016,3.279-7.283,7.309-7.283
			C66.529,74.854,69.797,78.121,69.797,82.137z"/>
		<path fill="#646985" d="M70.015,18.014c-2.012-2.012-4.68-3.12-7.512-3.12c-2.833,0-5.495,1.109-7.493,3.12L3.276,69.724
			c-2.012,2.012-3.121,4.681-3.121,7.516c0,2.834,1.108,5.503,3.121,7.515c2,2,4.661,3.102,7.493,3.102
			c2.831,0,5.498-1.101,7.512-3.102l1.373-1.373v32.659c0,3.29,2.67,5.96,5.96,5.96h73.78c3.28,0,5.96-2.67,5.96-5.96V83.363
			l1.391,1.391c2,2,4.661,3.102,7.493,3.102c2.831,0,5.498-1.101,7.514-3.104c4.116-4.143,4.116-10.884-0.002-15.028L70.015,18.014z
			 M103.354,116.04c0,2.18-1.78,3.96-3.96,3.96h-73.78c-2.19,0-3.96-1.78-3.96-3.96V81.381l40.86-40.86l40.84,40.841V116.04z
			 M120.338,83.338c-1.634,1.623-3.801,2.518-6.1,2.518c-2.298,0-4.457-0.894-6.079-2.516L62.513,37.693L16.869,83.338
			c-1.635,1.623-3.801,2.518-6.101,2.518c-2.297,0-4.457-0.894-6.079-2.516c-1.634-1.635-2.535-3.801-2.535-6.101
			c0-2.301,0.9-4.467,2.535-6.102l51.737-51.712c1.622-1.632,3.78-2.532,6.076-2.532c2.298,0,4.463,0.9,6.098,2.535l51.732,51.707
			C123.677,74.501,123.677,79.977,120.338,83.338z"/>
		<path fill="#646985" d="M85.65,13.415c0,0.552,0.447,1,1,1c13.124,0,23.801,10.677,23.801,23.801c0,0.552,0.447,1,1,1s1-0.448,1-1
			c0-14.227-11.574-25.801-25.801-25.801C86.097,12.415,85.65,12.862,85.65,13.415z"/>
		<path fill="#646985" d="M122.844,38.206c0,0.552,0.447,1,1,1s1-0.448,1-1c0-11.695-5.226-22.568-14.336-29.833
			c-0.432-0.345-1.06-0.273-1.405,0.158c-0.344,0.432-0.273,1.061,0.159,1.405C117.894,16.82,122.844,27.124,122.844,38.206z"/>
		<path fill="#646985" d="M86.638,2c4.329,0,8.576,0.76,12.621,2.259c0.114,0.042,0.232,0.063,0.348,0.063
			c0.406,0,0.788-0.25,0.938-0.653c0.192-0.518-0.072-1.093-0.59-1.285C95.686,0.802,91.206,0,86.638,0c-0.553,0-1,0.448-1,1
			S86.086,2,86.638,2z"/>
	</g>
</g>
</svg>
