<?xml version="1.0" encoding="utf-8"?>
<!-- Generator: Adobe Illustrator 17.0.0, SVG Export Plug-In . SVG Version: 6.00 Build 0)  -->
<!DOCTYPE svg PUBLIC "-//W3C//DTD SVG 1.1//EN" "http://www.w3.org/Graphics/SVG/1.1/DTD/svg11.dtd">
<svg version="1.1" id="Слой_1" xmlns="http://www.w3.org/2000/svg" xmlns:xlink="http://www.w3.org/1999/xlink" x="0px" y="0px"
	 width="262px" height="262px" viewBox="0 0 262 262" enable-background="new 0 0 262 262" xml:space="preserve">
<g>
	<path fill="#646985" d="M16.111,189.724c-0.251-0.491-0.853-0.686-1.346-0.434c-0.491,0.251-0.686,0.854-0.434,1.346
		c1.525,2.978,3.186,5.934,4.937,8.786c0.188,0.308,0.517,0.477,0.853,0.477c0.178,0,0.359-0.048,0.522-0.147
		c0.471-0.289,0.618-0.905,0.329-1.376C19.248,195.566,17.612,192.656,16.111,189.724z"/>
	<path fill="#646985" d="M6.928,92.063C6.399,91.9,5.84,92.199,5.68,92.728c-0.976,3.199-1.838,6.476-2.563,9.74
		c-0.12,0.539,0.22,1.073,0.759,1.193c0.073,0.017,0.146,0.024,0.218,0.024c0.458,0,0.872-0.317,0.975-0.783
		c0.714-3.213,1.563-6.44,2.524-9.59C7.754,92.782,7.456,92.224,6.928,92.063z"/>
	<path fill="#646985" d="M62.478,240.316c-11.226-7.052-21.276-15.761-29.871-25.888c-0.356-0.419-0.987-0.472-1.409-0.115
		c-0.421,0.357-0.473,0.988-0.115,1.41c8.728,10.282,18.933,19.126,30.332,26.286c0.165,0.104,0.349,0.153,0.531,0.153
		c0.333,0,0.658-0.166,0.848-0.468C63.086,241.228,62.945,240.61,62.478,240.316z"/>
	<path fill="#646985" d="M67.564,16.356c-2.921,1.62-5.821,3.377-8.618,5.222c-0.461,0.304-0.588,0.924-0.284,1.386
		c0.192,0.292,0.511,0.449,0.836,0.449c0.189,0,0.38-0.053,0.55-0.165c2.754-1.817,5.61-3.547,8.486-5.143
		c0.483-0.268,0.658-0.876,0.39-1.359C68.656,16.263,68.046,16.087,67.564,16.356z"/>
	<path fill="#646985" d="M192.199,17.412c11.658,6.294,22.256,14.327,31.499,23.876c0.196,0.203,0.457,0.305,0.719,0.305
		c0.251,0,0.501-0.094,0.695-0.281c0.397-0.384,0.407-1.018,0.023-1.414c-9.386-9.696-20.147-17.854-31.987-24.245
		c-0.484-0.262-1.093-0.081-1.354,0.405C191.531,16.543,191.713,17.15,192.199,17.412z"/>
	<path fill="#646985" d="M18.121,66.463c0.159,0.092,0.332,0.136,0.503,0.136c0.344,0,0.679-0.178,0.865-0.496
		c6.677-11.448,15.053-21.777,24.896-30.701c0.409-0.371,0.44-1.003,0.069-1.413c-0.371-0.408-1.002-0.44-1.413-0.069
		c-9.995,9.061-18.5,19.55-25.28,31.175C17.482,65.572,17.644,66.185,18.121,66.463z"/>
	<path fill="#646985" d="M2,131c0-2.819,0.092-5.672,0.274-8.479c0.036-0.551-0.382-1.027-0.933-1.063
		c-0.558-0.029-1.026,0.382-1.063,0.934C0.094,125.242,0,128.138,0,131c0,10.612,1.272,21.168,3.781,31.374
		c0.112,0.457,0.521,0.762,0.97,0.762c0.079,0,0.16-0.009,0.24-0.029c0.536-0.132,0.864-0.673,0.732-1.209
		C3.253,151.847,2,141.451,2,131z"/>
	<path fill="#646985" d="M95.731,6.841c0.089,0,0.181-0.012,0.271-0.038C107.337,3.616,119.112,2,131,2
		c1.413,0,2.841,0.023,4.242,0.068c0.521,0.033,1.015-0.414,1.031-0.967c0.019-0.552-0.415-1.014-0.967-1.032
		C133.884,0.023,132.435,0,131,0c-12.071,0-24.028,1.641-35.539,4.878c-0.532,0.15-0.842,0.702-0.692,1.233
		C94.893,6.553,95.294,6.841,95.731,6.841z"/>
	<path fill="#646985" d="M238.005,203.072c-7.42,10.995-16.454,20.756-26.852,29.011c-0.433,0.344-0.505,0.973-0.161,1.405
		c0.197,0.248,0.489,0.378,0.784,0.378c0.218,0,0.437-0.071,0.621-0.217c10.557-8.383,19.73-18.294,27.266-29.458
		c0.309-0.458,0.188-1.079-0.27-1.389C238.935,202.495,238.314,202.614,238.005,203.072z"/>
	<path fill="#646985" d="M237.99,55.39c-0.32-0.451-0.941-0.558-1.395-0.239c-0.45,0.319-0.558,0.943-0.238,1.394
		c1.908,2.696,3.73,5.493,5.418,8.313c0.188,0.313,0.52,0.486,0.859,0.486c0.175,0,0.352-0.046,0.513-0.142
		c0.474-0.283,0.628-0.897,0.345-1.372C241.778,60.967,239.927,58.127,237.99,55.39z"/>
	<path fill="#646985" d="M98.78,255.944c-3.186-0.819-6.382-1.774-9.501-2.84c-0.523-0.178-1.091,0.101-1.27,0.623
		s0.101,1.091,0.623,1.27c3.167,1.082,6.414,2.053,9.649,2.885c0.083,0.021,0.167,0.031,0.25,0.031c0.446,0,0.852-0.3,0.968-0.751
		C99.637,256.627,99.315,256.082,98.78,255.944z"/>
	<path fill="#646985" d="M255.886,91.331c-0.166-0.525-0.727-0.816-1.256-0.65c-0.526,0.167-0.817,0.729-0.65,1.256
		C257.975,104.522,260,117.666,260,131c0,5.661-0.37,11.354-1.1,16.924c-0.072,0.548,0.313,1.05,0.861,1.121
		c0.044,0.006,0.088,0.009,0.131,0.009c0.495,0,0.925-0.366,0.99-0.87C261.624,142.529,262,136.747,262,131
		C262,117.46,259.942,104.113,255.886,91.331z"/>
	<path fill="#646985" d="M256.057,166.639c-0.525-0.154-1.085,0.149-1.24,0.68c-0.922,3.152-1.982,6.315-3.152,9.401
		c-0.196,0.517,0.063,1.094,0.58,1.289c0.117,0.045,0.236,0.065,0.354,0.065c0.403,0,0.783-0.246,0.935-0.646
		c1.188-3.134,2.267-6.347,3.203-9.55C256.892,167.35,256.587,166.794,256.057,166.639z"/>
	<path fill="#646985" d="M194.728,243.185c-2.86,1.63-5.823,3.168-8.807,4.574c-0.5,0.235-0.714,0.831-0.479,1.33
		c0.17,0.362,0.529,0.574,0.905,0.574c0.143,0,0.287-0.03,0.425-0.096c3.03-1.427,6.04-2.99,8.945-4.645
		c0.479-0.273,0.647-0.884,0.374-1.364C195.817,243.078,195.206,242.912,194.728,243.185z"/>
	<path fill="#646985" d="M157.765,257.221c-12.849,2.71-26.334,3.443-39.466,2.162c-0.554-0.048-1.039,0.349-1.092,0.897
		c-0.054,0.55,0.348,1.039,0.898,1.093C122.364,261.789,126.703,262,131,262c9.154,0,18.298-0.949,27.177-2.822
		c0.541-0.114,0.887-0.645,0.772-1.185S158.306,257.106,157.765,257.221z"/>
	<path fill="#646985" d="M165.133,4.492c-3.225-0.867-6.528-1.621-9.819-2.239c-0.541-0.099-1.065,0.255-1.167,0.798
		c-0.103,0.542,0.255,1.065,0.798,1.167c3.241,0.609,6.494,1.351,9.669,2.205c0.087,0.023,0.175,0.035,0.261,0.035
		c0.44,0,0.845-0.294,0.965-0.741C165.982,5.184,165.666,4.635,165.133,4.492z"/>
</g>
</svg>
